M48
;DRILL file {Pcbnew (2013-07-07 BZR 4022)-stable} date 5/10/2015 12:25:45 PM
;FORMAT={-:-/ absolute / inch / decimal}
FMAT,2
INCH,TZ
T1C0.032
T2C0.040
T3C0.056
T4C0.126
%
G90
G05
M72
T1
X6.45Y-6.775
X6.45Y-7.175
X6.55Y-6.775
X6.55Y-7.175
X6.65Y-6.775
X6.65Y-7.175
X6.75Y-6.775
X6.75Y-7.175
X6.775Y-7.5
X6.775Y-7.9
X6.8213Y-6.5159
X6.875Y-7.025
X6.875Y-7.225
X6.9Y-6.5061
X6.9Y-6.6439
X6.975Y-6.875
X6.975Y-6.975
X6.975Y-7.075
X6.975Y-7.175
X6.9787Y-6.6341
X7.025Y-7.7
X7.025Y-7.9
X7.175Y-6.05
X7.175Y-6.15
X7.175Y-6.25
X7.175Y-6.35
X7.275Y-6.475
X7.275Y-6.675
X7.275Y-6.875
X7.275Y-6.975
X7.275Y-7.075
X7.275Y-7.175
X7.3213Y-7.6909
X7.375Y-6.775
X7.375Y-7.175
X7.4Y-7.6811
X7.4Y-7.8189
X7.475Y-6.675
X7.475Y-6.775
X7.475Y-7.175
X7.4787Y-7.8091
X7.575Y-6.05
X7.575Y-6.15
X7.575Y-6.25
X7.575Y-6.35
X7.6Y-6.775
X7.6Y-7.175
X7.625Y-7.3
X7.625Y-7.5
X7.7Y-6.275
X7.7Y-6.775
X7.7Y-7.175
X7.8Y-6.775
X7.8Y-7.175
X7.875Y-6.675
X7.9Y-6.275
X7.9Y-6.775
X7.9Y-6.875
X7.9Y-6.975
X7.9Y-7.075
X7.9213Y-7.3159
X8.Y-7.3061
X8.Y-7.4439
X8.0787Y-7.4341
X8.0811Y-6.525
X8.0909Y-6.6037
X8.2091Y-6.4463
X8.2189Y-6.525
X8.3Y-6.775
X8.3Y-6.875
X8.3Y-6.975
X8.3Y-7.075
T2
X6.825Y-6.15
X6.875Y-7.325
X6.875Y-7.5
X6.925Y-6.15
X7.025Y-6.15
X7.275Y-7.325
X7.275Y-7.5
X7.475Y-6.525
X7.725Y-7.8
X7.825Y-7.8
X7.875Y-6.525
X7.925Y-7.8
T3
X6.475Y-6.425
X6.475Y-6.625
X6.475Y-7.325
X6.475Y-7.525
X7.7Y-6.05
X7.9Y-6.05
X8.275Y-7.375
X8.275Y-7.575
T4
X6.525Y-6.125
X6.525Y-7.825
X8.225Y-6.125
X8.225Y-7.825
T0
M30
