G04 (created by PCBNEW (2013-07-07 BZR 4022)-stable) date 5/10/2015 12:25:42 PM*
%MOIN*%
G04 Gerber Fmt 3.4, Leading zero omitted, Abs format*
%FSLAX34Y34*%
G01*
G70*
G90*
G04 APERTURE LIST*
%ADD10C,0.00590551*%
%ADD11R,0.069X0.069*%
%ADD12C,0.069*%
%ADD13O,0.059X0.059*%
%ADD14R,0.059X0.059*%
%ADD15R,0.0885X0.059*%
%ADD16O,0.0885X0.059*%
%ADD17O,0.069X0.069*%
%ADD18C,0.23622*%
%ADD19R,0.059X0.114*%
%ADD20R,0.114X0.059*%
%ADD21C,0.059*%
%ADD22R,0.079X0.079*%
%ADD23C,0.079*%
%ADD24C,0.01*%
G04 APERTURE END LIST*
G54D10*
G54D11*
X70250Y-61500D03*
G54D12*
X68250Y-61500D03*
X69250Y-61500D03*
G54D11*
X77250Y-78000D03*
G54D12*
X79250Y-78000D03*
X78250Y-78000D03*
G54D13*
X74750Y-66750D03*
X78750Y-66750D03*
X71750Y-61500D03*
X75750Y-61500D03*
X71750Y-62500D03*
X75750Y-62500D03*
X67750Y-79000D03*
X67750Y-75000D03*
X71750Y-63500D03*
X75750Y-63500D03*
X71750Y-60500D03*
X75750Y-60500D03*
X77000Y-71750D03*
X77000Y-67750D03*
X78000Y-67750D03*
X78000Y-71750D03*
X74750Y-67750D03*
X74750Y-71750D03*
X73750Y-67750D03*
X73750Y-71750D03*
X83000Y-67750D03*
X79000Y-67750D03*
X76000Y-67750D03*
G54D14*
X76000Y-71750D03*
G54D13*
X83000Y-68750D03*
X79000Y-68750D03*
X64500Y-67750D03*
X64500Y-71750D03*
X67500Y-67750D03*
X67500Y-71750D03*
X66500Y-67750D03*
X66500Y-71750D03*
X65500Y-67750D03*
X65500Y-71750D03*
X83000Y-69750D03*
X79000Y-69750D03*
X83000Y-70750D03*
X79000Y-70750D03*
G54D12*
X72750Y-75000D03*
X68750Y-75000D03*
X78750Y-65250D03*
X74750Y-65250D03*
G54D15*
X69897Y-68750D03*
G54D16*
X69897Y-69750D03*
X69897Y-70750D03*
X69897Y-71750D03*
X72602Y-71750D03*
X72602Y-70750D03*
X72602Y-68750D03*
X72602Y-69750D03*
G54D11*
X72750Y-73250D03*
G54D17*
X68750Y-73250D03*
G54D18*
X65250Y-61250D03*
X82250Y-61250D03*
X65250Y-78250D03*
X82250Y-78250D03*
G54D19*
X72750Y-66475D03*
X72750Y-65025D03*
X76250Y-73275D03*
X76250Y-74725D03*
X70250Y-78725D03*
X70250Y-77275D03*
G54D20*
X77275Y-62750D03*
X78725Y-62750D03*
G54D21*
X69787Y-66340D03*
X68212Y-65159D03*
X69000Y-66438D03*
X69000Y-65061D03*
X79212Y-73159D03*
X80787Y-74340D03*
X80000Y-73061D03*
X80000Y-74438D03*
X74787Y-78090D03*
X73212Y-76909D03*
X74000Y-78188D03*
X74000Y-76811D03*
X80909Y-66037D03*
X82090Y-64462D03*
X80811Y-65250D03*
X82188Y-65250D03*
G54D22*
X82750Y-75750D03*
G54D23*
X82750Y-73750D03*
G54D22*
X64750Y-75250D03*
G54D23*
X64750Y-73250D03*
G54D22*
X64750Y-66250D03*
G54D23*
X64750Y-64250D03*
G54D22*
X77000Y-60500D03*
G54D23*
X79000Y-60500D03*
G54D19*
X68750Y-70525D03*
X68750Y-71975D03*
G54D10*
G36*
X83200Y-77317D02*
X83004Y-77122D01*
X82515Y-76919D01*
X81986Y-76918D01*
X81496Y-77120D01*
X81354Y-77263D01*
X81354Y-65949D01*
X81286Y-65785D01*
X81161Y-65660D01*
X81068Y-65621D01*
X81188Y-65502D01*
X81255Y-65338D01*
X81256Y-65161D01*
X81188Y-64998D01*
X81063Y-64872D01*
X80899Y-64805D01*
X80722Y-64804D01*
X80559Y-64872D01*
X80433Y-64997D01*
X80366Y-65161D01*
X80365Y-65338D01*
X80433Y-65501D01*
X80558Y-65627D01*
X80651Y-65665D01*
X80532Y-65785D01*
X80464Y-65948D01*
X80464Y-66125D01*
X80531Y-66289D01*
X80657Y-66414D01*
X80820Y-66482D01*
X80997Y-66482D01*
X81161Y-66414D01*
X81286Y-66289D01*
X81354Y-66126D01*
X81354Y-65949D01*
X81354Y-77263D01*
X81232Y-77384D01*
X81232Y-74252D01*
X81164Y-74088D01*
X81039Y-73963D01*
X80876Y-73895D01*
X80699Y-73895D01*
X80535Y-73963D01*
X80450Y-74048D01*
X80450Y-73117D01*
X80437Y-72941D01*
X80394Y-72836D01*
X80327Y-72804D01*
X80256Y-72874D01*
X80256Y-72733D01*
X80224Y-72666D01*
X80056Y-72610D01*
X79880Y-72623D01*
X79775Y-72666D01*
X79743Y-72733D01*
X80000Y-72990D01*
X80256Y-72733D01*
X80256Y-72874D01*
X80070Y-73061D01*
X80327Y-73317D01*
X80394Y-73285D01*
X80450Y-73117D01*
X80450Y-74048D01*
X80410Y-74088D01*
X80371Y-74181D01*
X80256Y-74066D01*
X80256Y-73388D01*
X80000Y-73131D01*
X79929Y-73202D01*
X79929Y-73061D01*
X79672Y-72804D01*
X79605Y-72836D01*
X79577Y-72920D01*
X79540Y-72902D01*
X79469Y-72973D01*
X79469Y-72831D01*
X79453Y-72799D01*
X79453Y-70750D01*
X79453Y-69750D01*
X79453Y-68750D01*
X79453Y-67750D01*
X79445Y-67706D01*
X79445Y-63015D01*
X79445Y-62484D01*
X79444Y-62425D01*
X79422Y-62369D01*
X79379Y-62327D01*
X79329Y-62306D01*
X79329Y-60900D01*
X79000Y-60570D01*
X78670Y-60900D01*
X78715Y-60977D01*
X78919Y-61049D01*
X79135Y-61038D01*
X79284Y-60977D01*
X79329Y-60900D01*
X79329Y-62306D01*
X79324Y-62304D01*
X78812Y-62305D01*
X78775Y-62342D01*
X78775Y-62700D01*
X79407Y-62700D01*
X79445Y-62662D01*
X79445Y-62484D01*
X79445Y-63015D01*
X79445Y-62837D01*
X79407Y-62800D01*
X78775Y-62800D01*
X78775Y-63157D01*
X78812Y-63195D01*
X79324Y-63195D01*
X79379Y-63172D01*
X79422Y-63130D01*
X79444Y-63074D01*
X79445Y-63015D01*
X79445Y-67706D01*
X79419Y-67579D01*
X79323Y-67435D01*
X79245Y-67383D01*
X79245Y-65151D01*
X79169Y-64969D01*
X79030Y-64830D01*
X78848Y-64755D01*
X78675Y-64754D01*
X78675Y-63157D01*
X78675Y-62800D01*
X78675Y-62700D01*
X78675Y-62342D01*
X78637Y-62305D01*
X78125Y-62304D01*
X78070Y-62327D01*
X78027Y-62369D01*
X78005Y-62425D01*
X78004Y-62484D01*
X78005Y-62662D01*
X78042Y-62700D01*
X78675Y-62700D01*
X78675Y-62800D01*
X78042Y-62800D01*
X78005Y-62837D01*
X78004Y-63015D01*
X78005Y-63074D01*
X78027Y-63130D01*
X78070Y-63172D01*
X78125Y-63195D01*
X78637Y-63195D01*
X78675Y-63157D01*
X78675Y-64754D01*
X78651Y-64754D01*
X78469Y-64830D01*
X78330Y-64969D01*
X78255Y-65151D01*
X78254Y-65348D01*
X78330Y-65530D01*
X78469Y-65669D01*
X78651Y-65744D01*
X78848Y-65745D01*
X79030Y-65669D01*
X79169Y-65530D01*
X79244Y-65348D01*
X79245Y-65151D01*
X79245Y-67383D01*
X79203Y-67355D01*
X79203Y-66750D01*
X79169Y-66579D01*
X79073Y-66435D01*
X78929Y-66338D01*
X78758Y-66305D01*
X78741Y-66305D01*
X78570Y-66338D01*
X78426Y-66435D01*
X78330Y-66579D01*
X78296Y-66750D01*
X78330Y-66920D01*
X78426Y-67064D01*
X78570Y-67161D01*
X78741Y-67195D01*
X78758Y-67195D01*
X78929Y-67161D01*
X79073Y-67064D01*
X79169Y-66920D01*
X79203Y-66750D01*
X79203Y-67355D01*
X79179Y-67338D01*
X79008Y-67305D01*
X78991Y-67305D01*
X78820Y-67338D01*
X78676Y-67435D01*
X78580Y-67579D01*
X78546Y-67750D01*
X78580Y-67920D01*
X78676Y-68064D01*
X78820Y-68161D01*
X78991Y-68195D01*
X79008Y-68195D01*
X79179Y-68161D01*
X79323Y-68064D01*
X79419Y-67920D01*
X79453Y-67750D01*
X79453Y-68750D01*
X79419Y-68579D01*
X79323Y-68435D01*
X79179Y-68338D01*
X79008Y-68305D01*
X78991Y-68305D01*
X78820Y-68338D01*
X78676Y-68435D01*
X78580Y-68579D01*
X78546Y-68750D01*
X78580Y-68920D01*
X78676Y-69064D01*
X78820Y-69161D01*
X78991Y-69195D01*
X79008Y-69195D01*
X79179Y-69161D01*
X79323Y-69064D01*
X79419Y-68920D01*
X79453Y-68750D01*
X79453Y-69750D01*
X79419Y-69579D01*
X79323Y-69435D01*
X79179Y-69338D01*
X79008Y-69305D01*
X78991Y-69305D01*
X78820Y-69338D01*
X78676Y-69435D01*
X78580Y-69579D01*
X78546Y-69750D01*
X78580Y-69920D01*
X78676Y-70064D01*
X78820Y-70161D01*
X78991Y-70195D01*
X79008Y-70195D01*
X79179Y-70161D01*
X79323Y-70064D01*
X79419Y-69920D01*
X79453Y-69750D01*
X79453Y-70750D01*
X79419Y-70579D01*
X79323Y-70435D01*
X79179Y-70338D01*
X79008Y-70305D01*
X78991Y-70305D01*
X78820Y-70338D01*
X78676Y-70435D01*
X78580Y-70579D01*
X78546Y-70750D01*
X78580Y-70920D01*
X78676Y-71064D01*
X78820Y-71161D01*
X78991Y-71195D01*
X79008Y-71195D01*
X79179Y-71161D01*
X79323Y-71064D01*
X79419Y-70920D01*
X79453Y-70750D01*
X79453Y-72799D01*
X79437Y-72765D01*
X79269Y-72709D01*
X79092Y-72721D01*
X78987Y-72765D01*
X78955Y-72831D01*
X79212Y-73088D01*
X79469Y-72831D01*
X79469Y-72973D01*
X79283Y-73159D01*
X79540Y-73416D01*
X79606Y-73384D01*
X79634Y-73299D01*
X79672Y-73317D01*
X79929Y-73061D01*
X79929Y-73202D01*
X79743Y-73388D01*
X79775Y-73455D01*
X79943Y-73511D01*
X80119Y-73498D01*
X80224Y-73455D01*
X80256Y-73388D01*
X80256Y-74066D01*
X80252Y-74061D01*
X80088Y-73994D01*
X79911Y-73993D01*
X79748Y-74061D01*
X79622Y-74186D01*
X79555Y-74350D01*
X79554Y-74527D01*
X79622Y-74690D01*
X79747Y-74816D01*
X79911Y-74883D01*
X80088Y-74884D01*
X80251Y-74816D01*
X80377Y-74691D01*
X80415Y-74598D01*
X80535Y-74717D01*
X80698Y-74785D01*
X80875Y-74785D01*
X81039Y-74718D01*
X81164Y-74592D01*
X81232Y-74429D01*
X81232Y-74252D01*
X81232Y-77384D01*
X81122Y-77495D01*
X80919Y-77984D01*
X80918Y-78513D01*
X81120Y-79003D01*
X81317Y-79200D01*
X79750Y-79200D01*
X79750Y-78068D01*
X79738Y-77872D01*
X79685Y-77745D01*
X79613Y-77706D01*
X79543Y-77777D01*
X79543Y-77636D01*
X79504Y-77564D01*
X79469Y-77552D01*
X79469Y-73486D01*
X79212Y-73230D01*
X79141Y-73300D01*
X79141Y-73159D01*
X78885Y-72902D01*
X78818Y-72934D01*
X78762Y-73102D01*
X78775Y-73279D01*
X78818Y-73384D01*
X78885Y-73416D01*
X79141Y-73159D01*
X79141Y-73300D01*
X78955Y-73486D01*
X78987Y-73553D01*
X79155Y-73609D01*
X79332Y-73597D01*
X79437Y-73553D01*
X79469Y-73486D01*
X79469Y-77552D01*
X79318Y-77499D01*
X79122Y-77511D01*
X78995Y-77564D01*
X78956Y-77636D01*
X79250Y-77929D01*
X79543Y-77636D01*
X79543Y-77777D01*
X79320Y-78000D01*
X79613Y-78293D01*
X79685Y-78254D01*
X79750Y-78068D01*
X79750Y-79200D01*
X79543Y-79200D01*
X79543Y-78363D01*
X79250Y-78070D01*
X79179Y-78141D01*
X79179Y-78000D01*
X78886Y-77706D01*
X78814Y-77745D01*
X78749Y-77931D01*
X78761Y-78127D01*
X78814Y-78254D01*
X78886Y-78293D01*
X79179Y-78000D01*
X79179Y-78141D01*
X78956Y-78363D01*
X78995Y-78435D01*
X79181Y-78500D01*
X79377Y-78488D01*
X79504Y-78435D01*
X79543Y-78363D01*
X79543Y-79200D01*
X78750Y-79200D01*
X78750Y-78068D01*
X78738Y-77872D01*
X78685Y-77745D01*
X78613Y-77706D01*
X78543Y-77777D01*
X78543Y-77636D01*
X78504Y-77564D01*
X78445Y-77543D01*
X78445Y-71758D01*
X78445Y-71741D01*
X78445Y-67758D01*
X78445Y-67741D01*
X78411Y-67570D01*
X78314Y-67426D01*
X78170Y-67330D01*
X78000Y-67296D01*
X77995Y-67297D01*
X77995Y-63015D01*
X77995Y-62425D01*
X77972Y-62370D01*
X77930Y-62327D01*
X77874Y-62305D01*
X77815Y-62304D01*
X76675Y-62304D01*
X76620Y-62327D01*
X76577Y-62369D01*
X76555Y-62425D01*
X76554Y-62484D01*
X76554Y-63074D01*
X76577Y-63129D01*
X76619Y-63172D01*
X76675Y-63194D01*
X76734Y-63195D01*
X77874Y-63195D01*
X77929Y-63172D01*
X77972Y-63130D01*
X77994Y-63074D01*
X77995Y-63015D01*
X77995Y-67297D01*
X77829Y-67330D01*
X77685Y-67426D01*
X77588Y-67570D01*
X77555Y-67741D01*
X77555Y-67758D01*
X77588Y-67929D01*
X77685Y-68073D01*
X77829Y-68169D01*
X78000Y-68203D01*
X78170Y-68169D01*
X78314Y-68073D01*
X78411Y-67929D01*
X78445Y-67758D01*
X78445Y-71741D01*
X78411Y-71570D01*
X78314Y-71426D01*
X78170Y-71330D01*
X78000Y-71296D01*
X77829Y-71330D01*
X77685Y-71426D01*
X77588Y-71570D01*
X77555Y-71741D01*
X77555Y-71758D01*
X77588Y-71929D01*
X77685Y-72073D01*
X77829Y-72169D01*
X78000Y-72203D01*
X78170Y-72169D01*
X78314Y-72073D01*
X78411Y-71929D01*
X78445Y-71758D01*
X78445Y-77543D01*
X78318Y-77499D01*
X78122Y-77511D01*
X77995Y-77564D01*
X77956Y-77636D01*
X78250Y-77929D01*
X78543Y-77636D01*
X78543Y-77777D01*
X78320Y-78000D01*
X78613Y-78293D01*
X78685Y-78254D01*
X78750Y-78068D01*
X78750Y-79200D01*
X78543Y-79200D01*
X78543Y-78363D01*
X78250Y-78070D01*
X78179Y-78141D01*
X78179Y-78000D01*
X77886Y-77706D01*
X77814Y-77745D01*
X77749Y-77931D01*
X77761Y-78127D01*
X77814Y-78254D01*
X77886Y-78293D01*
X78179Y-78000D01*
X78179Y-78141D01*
X77956Y-78363D01*
X77995Y-78435D01*
X78181Y-78500D01*
X78377Y-78488D01*
X78504Y-78435D01*
X78543Y-78363D01*
X78543Y-79200D01*
X77745Y-79200D01*
X77745Y-78315D01*
X77745Y-77625D01*
X77722Y-77570D01*
X77680Y-77527D01*
X77624Y-77505D01*
X77565Y-77504D01*
X77445Y-77504D01*
X77445Y-71758D01*
X77445Y-71741D01*
X77445Y-67758D01*
X77445Y-67741D01*
X77411Y-67570D01*
X77314Y-67426D01*
X77170Y-67330D01*
X77000Y-67296D01*
X76829Y-67330D01*
X76685Y-67426D01*
X76588Y-67570D01*
X76555Y-67741D01*
X76555Y-67758D01*
X76588Y-67929D01*
X76685Y-68073D01*
X76829Y-68169D01*
X77000Y-68203D01*
X77170Y-68169D01*
X77314Y-68073D01*
X77411Y-67929D01*
X77445Y-67758D01*
X77445Y-71741D01*
X77411Y-71570D01*
X77314Y-71426D01*
X77170Y-71330D01*
X77000Y-71296D01*
X76829Y-71330D01*
X76685Y-71426D01*
X76588Y-71570D01*
X76555Y-71741D01*
X76555Y-71758D01*
X76588Y-71929D01*
X76685Y-72073D01*
X76829Y-72169D01*
X77000Y-72203D01*
X77170Y-72169D01*
X77314Y-72073D01*
X77411Y-71929D01*
X77445Y-71758D01*
X77445Y-77504D01*
X76875Y-77504D01*
X76820Y-77527D01*
X76777Y-77569D01*
X76755Y-77625D01*
X76754Y-77684D01*
X76754Y-78374D01*
X76777Y-78429D01*
X76819Y-78472D01*
X76875Y-78494D01*
X76934Y-78495D01*
X77624Y-78495D01*
X77679Y-78472D01*
X77722Y-78430D01*
X77744Y-78374D01*
X77745Y-78315D01*
X77745Y-79200D01*
X76695Y-79200D01*
X76695Y-75265D01*
X76695Y-74125D01*
X76695Y-73874D01*
X76695Y-72675D01*
X76672Y-72620D01*
X76630Y-72577D01*
X76574Y-72555D01*
X76515Y-72554D01*
X76445Y-72554D01*
X76445Y-72015D01*
X76445Y-71425D01*
X76445Y-71425D01*
X76445Y-67758D01*
X76445Y-67741D01*
X76411Y-67570D01*
X76314Y-67426D01*
X76203Y-67352D01*
X76203Y-63500D01*
X76203Y-62500D01*
X76203Y-61500D01*
X76169Y-61329D01*
X76073Y-61185D01*
X75929Y-61088D01*
X75758Y-61055D01*
X75741Y-61055D01*
X75570Y-61088D01*
X75426Y-61185D01*
X75330Y-61329D01*
X75296Y-61500D01*
X75330Y-61670D01*
X75426Y-61814D01*
X75570Y-61911D01*
X75741Y-61945D01*
X75758Y-61945D01*
X75929Y-61911D01*
X76073Y-61814D01*
X76169Y-61670D01*
X76203Y-61500D01*
X76203Y-62500D01*
X76169Y-62329D01*
X76073Y-62185D01*
X75929Y-62088D01*
X75758Y-62055D01*
X75741Y-62055D01*
X75570Y-62088D01*
X75426Y-62185D01*
X75330Y-62329D01*
X75296Y-62500D01*
X75330Y-62670D01*
X75426Y-62814D01*
X75570Y-62911D01*
X75741Y-62945D01*
X75758Y-62945D01*
X75929Y-62911D01*
X76073Y-62814D01*
X76169Y-62670D01*
X76203Y-62500D01*
X76203Y-63500D01*
X76169Y-63329D01*
X76073Y-63185D01*
X75929Y-63088D01*
X75758Y-63055D01*
X75741Y-63055D01*
X75570Y-63088D01*
X75426Y-63185D01*
X75330Y-63329D01*
X75296Y-63500D01*
X75330Y-63670D01*
X75426Y-63814D01*
X75570Y-63911D01*
X75741Y-63945D01*
X75758Y-63945D01*
X75929Y-63911D01*
X76073Y-63814D01*
X76169Y-63670D01*
X76203Y-63500D01*
X76203Y-67352D01*
X76170Y-67330D01*
X76000Y-67296D01*
X75829Y-67330D01*
X75685Y-67426D01*
X75588Y-67570D01*
X75555Y-67741D01*
X75555Y-67758D01*
X75588Y-67929D01*
X75685Y-68073D01*
X75829Y-68169D01*
X76000Y-68203D01*
X76170Y-68169D01*
X76314Y-68073D01*
X76411Y-67929D01*
X76445Y-67758D01*
X76445Y-71425D01*
X76422Y-71370D01*
X76380Y-71327D01*
X76324Y-71305D01*
X76265Y-71304D01*
X75675Y-71304D01*
X75620Y-71327D01*
X75577Y-71369D01*
X75555Y-71425D01*
X75554Y-71484D01*
X75554Y-72074D01*
X75577Y-72129D01*
X75619Y-72172D01*
X75675Y-72194D01*
X75734Y-72195D01*
X76324Y-72195D01*
X76379Y-72172D01*
X76422Y-72130D01*
X76444Y-72074D01*
X76445Y-72015D01*
X76445Y-72554D01*
X76337Y-72555D01*
X76300Y-72592D01*
X76300Y-73225D01*
X76657Y-73225D01*
X76695Y-73187D01*
X76695Y-72675D01*
X76695Y-73874D01*
X76695Y-73362D01*
X76657Y-73325D01*
X76300Y-73325D01*
X76300Y-73957D01*
X76337Y-73995D01*
X76515Y-73995D01*
X76574Y-73994D01*
X76630Y-73972D01*
X76672Y-73929D01*
X76695Y-73874D01*
X76695Y-74125D01*
X76672Y-74070D01*
X76630Y-74027D01*
X76574Y-74005D01*
X76515Y-74004D01*
X76200Y-74004D01*
X76200Y-73957D01*
X76200Y-73325D01*
X76200Y-73225D01*
X76200Y-72592D01*
X76162Y-72555D01*
X75984Y-72554D01*
X75925Y-72555D01*
X75869Y-72577D01*
X75827Y-72620D01*
X75804Y-72675D01*
X75805Y-73187D01*
X75842Y-73225D01*
X76200Y-73225D01*
X76200Y-73325D01*
X75842Y-73325D01*
X75805Y-73362D01*
X75804Y-73874D01*
X75827Y-73929D01*
X75869Y-73972D01*
X75925Y-73994D01*
X75984Y-73995D01*
X76162Y-73995D01*
X76200Y-73957D01*
X76200Y-74004D01*
X75925Y-74004D01*
X75870Y-74027D01*
X75827Y-74069D01*
X75805Y-74125D01*
X75804Y-74184D01*
X75804Y-75324D01*
X75827Y-75379D01*
X75869Y-75422D01*
X75925Y-75444D01*
X75984Y-75445D01*
X76574Y-75445D01*
X76629Y-75422D01*
X76672Y-75380D01*
X76694Y-75324D01*
X76695Y-75265D01*
X76695Y-79200D01*
X75245Y-79200D01*
X75245Y-65151D01*
X75169Y-64969D01*
X75030Y-64830D01*
X74848Y-64755D01*
X74651Y-64754D01*
X74469Y-64830D01*
X74330Y-64969D01*
X74255Y-65151D01*
X74254Y-65348D01*
X74330Y-65530D01*
X74469Y-65669D01*
X74651Y-65744D01*
X74848Y-65745D01*
X75030Y-65669D01*
X75169Y-65530D01*
X75244Y-65348D01*
X75245Y-65151D01*
X75245Y-79200D01*
X75237Y-79200D01*
X75237Y-78147D01*
X75224Y-77970D01*
X75203Y-77919D01*
X75203Y-66750D01*
X75169Y-66579D01*
X75073Y-66435D01*
X74929Y-66338D01*
X74758Y-66305D01*
X74741Y-66305D01*
X74570Y-66338D01*
X74426Y-66435D01*
X74330Y-66579D01*
X74296Y-66750D01*
X74330Y-66920D01*
X74426Y-67064D01*
X74570Y-67161D01*
X74741Y-67195D01*
X74758Y-67195D01*
X74929Y-67161D01*
X75073Y-67064D01*
X75169Y-66920D01*
X75203Y-66750D01*
X75203Y-77919D01*
X75195Y-77898D01*
X75195Y-71758D01*
X75195Y-71741D01*
X75195Y-67758D01*
X75195Y-67741D01*
X75161Y-67570D01*
X75064Y-67426D01*
X74920Y-67330D01*
X74750Y-67296D01*
X74579Y-67330D01*
X74435Y-67426D01*
X74338Y-67570D01*
X74305Y-67741D01*
X74305Y-67758D01*
X74338Y-67929D01*
X74435Y-68073D01*
X74579Y-68169D01*
X74750Y-68203D01*
X74920Y-68169D01*
X75064Y-68073D01*
X75161Y-67929D01*
X75195Y-67758D01*
X75195Y-71741D01*
X75161Y-71570D01*
X75064Y-71426D01*
X74920Y-71330D01*
X74750Y-71296D01*
X74579Y-71330D01*
X74435Y-71426D01*
X74338Y-71570D01*
X74305Y-71741D01*
X74305Y-71758D01*
X74338Y-71929D01*
X74435Y-72073D01*
X74579Y-72169D01*
X74750Y-72203D01*
X74920Y-72169D01*
X75064Y-72073D01*
X75161Y-71929D01*
X75195Y-71758D01*
X75195Y-77898D01*
X75181Y-77865D01*
X75114Y-77833D01*
X75044Y-77904D01*
X75044Y-77763D01*
X75012Y-77696D01*
X74844Y-77640D01*
X74667Y-77652D01*
X74562Y-77696D01*
X74530Y-77763D01*
X74787Y-78019D01*
X75044Y-77763D01*
X75044Y-77904D01*
X74858Y-78090D01*
X75114Y-78347D01*
X75181Y-78315D01*
X75237Y-78147D01*
X75237Y-79200D01*
X75044Y-79200D01*
X75044Y-78418D01*
X74787Y-78161D01*
X74716Y-78231D01*
X74716Y-78090D01*
X74459Y-77833D01*
X74445Y-77840D01*
X74445Y-76722D01*
X74377Y-76559D01*
X74252Y-76433D01*
X74195Y-76410D01*
X74195Y-71758D01*
X74195Y-71741D01*
X74178Y-71660D01*
X74178Y-67868D01*
X74178Y-67631D01*
X74100Y-67476D01*
X73969Y-67362D01*
X73868Y-67321D01*
X73800Y-67345D01*
X73800Y-67700D01*
X74154Y-67700D01*
X74178Y-67631D01*
X74178Y-67868D01*
X74154Y-67800D01*
X73800Y-67800D01*
X73800Y-68154D01*
X73868Y-68178D01*
X73969Y-68137D01*
X74100Y-68023D01*
X74178Y-67868D01*
X74178Y-71660D01*
X74161Y-71570D01*
X74064Y-71426D01*
X73920Y-71330D01*
X73750Y-71296D01*
X73700Y-71306D01*
X73700Y-68154D01*
X73700Y-67800D01*
X73700Y-67700D01*
X73700Y-67345D01*
X73631Y-67321D01*
X73530Y-67362D01*
X73399Y-67476D01*
X73321Y-67631D01*
X73345Y-67700D01*
X73700Y-67700D01*
X73700Y-67800D01*
X73345Y-67800D01*
X73321Y-67868D01*
X73399Y-68023D01*
X73530Y-68137D01*
X73631Y-68178D01*
X73700Y-68154D01*
X73700Y-71306D01*
X73579Y-71330D01*
X73435Y-71426D01*
X73338Y-71570D01*
X73305Y-71741D01*
X73305Y-71758D01*
X73338Y-71929D01*
X73435Y-72073D01*
X73579Y-72169D01*
X73750Y-72203D01*
X73920Y-72169D01*
X74064Y-72073D01*
X74161Y-71929D01*
X74195Y-71758D01*
X74195Y-76410D01*
X74088Y-76366D01*
X73911Y-76365D01*
X73748Y-76433D01*
X73622Y-76558D01*
X73584Y-76651D01*
X73464Y-76532D01*
X73301Y-76464D01*
X73245Y-76464D01*
X73245Y-74901D01*
X73245Y-74901D01*
X73245Y-73565D01*
X73245Y-72875D01*
X73222Y-72820D01*
X73206Y-72804D01*
X73206Y-71750D01*
X73206Y-70750D01*
X73206Y-69750D01*
X73206Y-68750D01*
X73195Y-68691D01*
X73195Y-67015D01*
X73195Y-65875D01*
X73195Y-65624D01*
X73195Y-64425D01*
X73172Y-64370D01*
X73130Y-64327D01*
X73074Y-64305D01*
X73015Y-64304D01*
X72837Y-64305D01*
X72800Y-64342D01*
X72800Y-64975D01*
X73157Y-64975D01*
X73195Y-64937D01*
X73195Y-64425D01*
X73195Y-65624D01*
X73195Y-65112D01*
X73157Y-65075D01*
X72800Y-65075D01*
X72800Y-65707D01*
X72837Y-65745D01*
X73015Y-65745D01*
X73074Y-65744D01*
X73130Y-65722D01*
X73172Y-65679D01*
X73195Y-65624D01*
X73195Y-65875D01*
X73172Y-65820D01*
X73130Y-65777D01*
X73074Y-65755D01*
X73015Y-65754D01*
X72700Y-65754D01*
X72700Y-65707D01*
X72700Y-65075D01*
X72700Y-64975D01*
X72700Y-64342D01*
X72662Y-64305D01*
X72484Y-64304D01*
X72425Y-64305D01*
X72369Y-64327D01*
X72327Y-64370D01*
X72304Y-64425D01*
X72305Y-64937D01*
X72342Y-64975D01*
X72700Y-64975D01*
X72700Y-65075D01*
X72342Y-65075D01*
X72305Y-65112D01*
X72304Y-65624D01*
X72327Y-65679D01*
X72369Y-65722D01*
X72425Y-65744D01*
X72484Y-65745D01*
X72662Y-65745D01*
X72700Y-65707D01*
X72700Y-65754D01*
X72425Y-65754D01*
X72370Y-65777D01*
X72327Y-65819D01*
X72305Y-65875D01*
X72304Y-65934D01*
X72304Y-67074D01*
X72327Y-67129D01*
X72369Y-67172D01*
X72425Y-67194D01*
X72484Y-67195D01*
X73074Y-67195D01*
X73129Y-67172D01*
X73172Y-67130D01*
X73194Y-67074D01*
X73195Y-67015D01*
X73195Y-68691D01*
X73172Y-68579D01*
X73076Y-68435D01*
X72931Y-68338D01*
X72761Y-68305D01*
X72443Y-68305D01*
X72273Y-68338D01*
X72203Y-68385D01*
X72203Y-63500D01*
X72203Y-62500D01*
X72203Y-61500D01*
X72169Y-61329D01*
X72073Y-61185D01*
X71929Y-61088D01*
X71758Y-61055D01*
X71741Y-61055D01*
X71570Y-61088D01*
X71426Y-61185D01*
X71330Y-61329D01*
X71296Y-61500D01*
X71330Y-61670D01*
X71426Y-61814D01*
X71570Y-61911D01*
X71741Y-61945D01*
X71758Y-61945D01*
X71929Y-61911D01*
X72073Y-61814D01*
X72169Y-61670D01*
X72203Y-61500D01*
X72203Y-62500D01*
X72169Y-62329D01*
X72073Y-62185D01*
X71929Y-62088D01*
X71758Y-62055D01*
X71741Y-62055D01*
X71570Y-62088D01*
X71426Y-62185D01*
X71330Y-62329D01*
X71296Y-62500D01*
X71330Y-62670D01*
X71426Y-62814D01*
X71570Y-62911D01*
X71741Y-62945D01*
X71758Y-62945D01*
X71929Y-62911D01*
X72073Y-62814D01*
X72169Y-62670D01*
X72203Y-62500D01*
X72203Y-63500D01*
X72169Y-63329D01*
X72073Y-63185D01*
X71929Y-63088D01*
X71758Y-63055D01*
X71741Y-63055D01*
X71570Y-63088D01*
X71426Y-63185D01*
X71330Y-63329D01*
X71296Y-63500D01*
X71330Y-63670D01*
X71426Y-63814D01*
X71570Y-63911D01*
X71741Y-63945D01*
X71758Y-63945D01*
X71929Y-63911D01*
X72073Y-63814D01*
X72169Y-63670D01*
X72203Y-63500D01*
X72203Y-68385D01*
X72128Y-68435D01*
X72032Y-68579D01*
X71998Y-68750D01*
X72032Y-68920D01*
X72128Y-69064D01*
X72273Y-69161D01*
X72443Y-69195D01*
X72761Y-69195D01*
X72931Y-69161D01*
X73076Y-69064D01*
X73172Y-68920D01*
X73206Y-68750D01*
X73206Y-69750D01*
X73172Y-69579D01*
X73076Y-69435D01*
X72931Y-69338D01*
X72761Y-69305D01*
X72443Y-69305D01*
X72273Y-69338D01*
X72128Y-69435D01*
X72032Y-69579D01*
X71998Y-69750D01*
X72032Y-69920D01*
X72128Y-70064D01*
X72273Y-70161D01*
X72443Y-70195D01*
X72761Y-70195D01*
X72931Y-70161D01*
X73076Y-70064D01*
X73172Y-69920D01*
X73206Y-69750D01*
X73206Y-70750D01*
X73172Y-70579D01*
X73076Y-70435D01*
X72931Y-70338D01*
X72761Y-70305D01*
X72443Y-70305D01*
X72273Y-70338D01*
X72128Y-70435D01*
X72032Y-70579D01*
X71998Y-70750D01*
X72032Y-70920D01*
X72128Y-71064D01*
X72273Y-71161D01*
X72443Y-71195D01*
X72761Y-71195D01*
X72931Y-71161D01*
X73076Y-71064D01*
X73172Y-70920D01*
X73206Y-70750D01*
X73206Y-71750D01*
X73172Y-71579D01*
X73076Y-71435D01*
X72931Y-71338D01*
X72761Y-71305D01*
X72443Y-71305D01*
X72273Y-71338D01*
X72128Y-71435D01*
X72032Y-71579D01*
X71998Y-71750D01*
X72032Y-71920D01*
X72128Y-72064D01*
X72273Y-72161D01*
X72443Y-72195D01*
X72761Y-72195D01*
X72931Y-72161D01*
X73076Y-72064D01*
X73172Y-71920D01*
X73206Y-71750D01*
X73206Y-72804D01*
X73180Y-72777D01*
X73124Y-72755D01*
X73065Y-72754D01*
X72375Y-72754D01*
X72320Y-72777D01*
X72277Y-72819D01*
X72255Y-72875D01*
X72254Y-72934D01*
X72254Y-73624D01*
X72277Y-73679D01*
X72319Y-73722D01*
X72375Y-73744D01*
X72434Y-73745D01*
X73124Y-73745D01*
X73179Y-73722D01*
X73222Y-73680D01*
X73244Y-73624D01*
X73245Y-73565D01*
X73245Y-74901D01*
X73169Y-74719D01*
X73030Y-74580D01*
X72848Y-74505D01*
X72651Y-74504D01*
X72469Y-74580D01*
X72330Y-74719D01*
X72255Y-74901D01*
X72254Y-75098D01*
X72330Y-75280D01*
X72469Y-75419D01*
X72651Y-75494D01*
X72848Y-75495D01*
X73030Y-75419D01*
X73169Y-75280D01*
X73244Y-75098D01*
X73245Y-74901D01*
X73245Y-76464D01*
X73124Y-76464D01*
X72960Y-76531D01*
X72835Y-76657D01*
X72767Y-76820D01*
X72767Y-76997D01*
X72835Y-77161D01*
X72960Y-77286D01*
X73123Y-77354D01*
X73300Y-77354D01*
X73464Y-77286D01*
X73589Y-77161D01*
X73628Y-77068D01*
X73747Y-77188D01*
X73911Y-77255D01*
X74088Y-77256D01*
X74251Y-77188D01*
X74377Y-77063D01*
X74444Y-76899D01*
X74445Y-76722D01*
X74445Y-77840D01*
X74393Y-77865D01*
X74365Y-77950D01*
X74327Y-77932D01*
X74256Y-78002D01*
X74256Y-77861D01*
X74224Y-77794D01*
X74056Y-77738D01*
X73880Y-77751D01*
X73775Y-77794D01*
X73743Y-77861D01*
X74000Y-78118D01*
X74256Y-77861D01*
X74256Y-78002D01*
X74070Y-78188D01*
X74327Y-78445D01*
X74394Y-78413D01*
X74422Y-78329D01*
X74459Y-78347D01*
X74716Y-78090D01*
X74716Y-78231D01*
X74530Y-78418D01*
X74562Y-78484D01*
X74730Y-78540D01*
X74907Y-78528D01*
X75012Y-78484D01*
X75044Y-78418D01*
X75044Y-79200D01*
X74256Y-79200D01*
X74256Y-78516D01*
X74000Y-78259D01*
X73929Y-78330D01*
X73929Y-78188D01*
X73672Y-77932D01*
X73605Y-77964D01*
X73549Y-78132D01*
X73562Y-78308D01*
X73605Y-78413D01*
X73672Y-78445D01*
X73929Y-78188D01*
X73929Y-78330D01*
X73743Y-78516D01*
X73775Y-78583D01*
X73943Y-78639D01*
X74119Y-78626D01*
X74224Y-78583D01*
X74256Y-78516D01*
X74256Y-79200D01*
X70745Y-79200D01*
X70745Y-61815D01*
X70745Y-61125D01*
X70722Y-61070D01*
X70680Y-61027D01*
X70624Y-61005D01*
X70565Y-61004D01*
X69875Y-61004D01*
X69820Y-61027D01*
X69777Y-61069D01*
X69755Y-61125D01*
X69754Y-61184D01*
X69754Y-61874D01*
X69777Y-61929D01*
X69819Y-61972D01*
X69875Y-61994D01*
X69934Y-61995D01*
X70624Y-61995D01*
X70679Y-61972D01*
X70722Y-61930D01*
X70744Y-61874D01*
X70745Y-61815D01*
X70745Y-79200D01*
X70695Y-79200D01*
X70695Y-78125D01*
X70695Y-77815D01*
X70695Y-76675D01*
X70672Y-76620D01*
X70630Y-76577D01*
X70574Y-76555D01*
X70515Y-76554D01*
X70501Y-76554D01*
X70501Y-71750D01*
X70501Y-70750D01*
X70501Y-69750D01*
X70490Y-69691D01*
X70490Y-69015D01*
X70490Y-68425D01*
X70467Y-68370D01*
X70425Y-68327D01*
X70369Y-68305D01*
X70310Y-68304D01*
X70232Y-68304D01*
X70232Y-66252D01*
X70164Y-66088D01*
X70039Y-65963D01*
X69876Y-65895D01*
X69750Y-65895D01*
X69750Y-61568D01*
X69738Y-61372D01*
X69685Y-61245D01*
X69613Y-61206D01*
X69543Y-61277D01*
X69543Y-61136D01*
X69504Y-61064D01*
X69318Y-60999D01*
X69122Y-61011D01*
X68995Y-61064D01*
X68956Y-61136D01*
X69250Y-61429D01*
X69543Y-61136D01*
X69543Y-61277D01*
X69320Y-61500D01*
X69613Y-61793D01*
X69685Y-61754D01*
X69750Y-61568D01*
X69750Y-65895D01*
X69699Y-65895D01*
X69543Y-65960D01*
X69543Y-61863D01*
X69250Y-61570D01*
X69179Y-61641D01*
X69179Y-61500D01*
X68886Y-61206D01*
X68814Y-61245D01*
X68749Y-61431D01*
X68761Y-61627D01*
X68814Y-61754D01*
X68886Y-61793D01*
X69179Y-61500D01*
X69179Y-61641D01*
X68956Y-61863D01*
X68995Y-61935D01*
X69181Y-62000D01*
X69377Y-61988D01*
X69504Y-61935D01*
X69543Y-61863D01*
X69543Y-65960D01*
X69535Y-65963D01*
X69450Y-66048D01*
X69450Y-65117D01*
X69437Y-64941D01*
X69394Y-64836D01*
X69327Y-64804D01*
X69256Y-64874D01*
X69256Y-64733D01*
X69224Y-64666D01*
X69056Y-64610D01*
X68880Y-64623D01*
X68775Y-64666D01*
X68750Y-64719D01*
X68750Y-61568D01*
X68738Y-61372D01*
X68685Y-61245D01*
X68613Y-61206D01*
X68543Y-61277D01*
X68543Y-61136D01*
X68504Y-61064D01*
X68318Y-60999D01*
X68122Y-61011D01*
X67995Y-61064D01*
X67956Y-61136D01*
X68250Y-61429D01*
X68543Y-61136D01*
X68543Y-61277D01*
X68320Y-61500D01*
X68613Y-61793D01*
X68685Y-61754D01*
X68750Y-61568D01*
X68750Y-64719D01*
X68743Y-64733D01*
X69000Y-64990D01*
X69256Y-64733D01*
X69256Y-64874D01*
X69070Y-65061D01*
X69327Y-65317D01*
X69394Y-65285D01*
X69450Y-65117D01*
X69450Y-66048D01*
X69410Y-66088D01*
X69371Y-66181D01*
X69256Y-66066D01*
X69256Y-65388D01*
X69000Y-65131D01*
X68929Y-65202D01*
X68929Y-65061D01*
X68672Y-64804D01*
X68605Y-64836D01*
X68577Y-64920D01*
X68543Y-64904D01*
X68543Y-61863D01*
X68250Y-61570D01*
X68179Y-61641D01*
X68179Y-61500D01*
X67886Y-61206D01*
X67814Y-61245D01*
X67749Y-61431D01*
X67761Y-61627D01*
X67814Y-61754D01*
X67886Y-61793D01*
X68179Y-61500D01*
X68179Y-61641D01*
X67956Y-61863D01*
X67995Y-61935D01*
X68181Y-62000D01*
X68377Y-61988D01*
X68504Y-61935D01*
X68543Y-61863D01*
X68543Y-64904D01*
X68540Y-64902D01*
X68469Y-64973D01*
X68469Y-64831D01*
X68437Y-64765D01*
X68269Y-64709D01*
X68092Y-64721D01*
X67987Y-64765D01*
X67955Y-64831D01*
X68212Y-65088D01*
X68469Y-64831D01*
X68469Y-64973D01*
X68283Y-65159D01*
X68540Y-65416D01*
X68606Y-65384D01*
X68634Y-65299D01*
X68672Y-65317D01*
X68929Y-65061D01*
X68929Y-65202D01*
X68743Y-65388D01*
X68775Y-65455D01*
X68943Y-65511D01*
X69119Y-65498D01*
X69224Y-65455D01*
X69256Y-65388D01*
X69256Y-66066D01*
X69252Y-66061D01*
X69088Y-65994D01*
X68911Y-65993D01*
X68748Y-66061D01*
X68622Y-66186D01*
X68555Y-66350D01*
X68554Y-66527D01*
X68622Y-66690D01*
X68747Y-66816D01*
X68911Y-66883D01*
X69088Y-66884D01*
X69251Y-66816D01*
X69377Y-66691D01*
X69415Y-66598D01*
X69535Y-66717D01*
X69698Y-66785D01*
X69875Y-66785D01*
X70039Y-66718D01*
X70164Y-66592D01*
X70232Y-66429D01*
X70232Y-66252D01*
X70232Y-68304D01*
X69425Y-68304D01*
X69370Y-68327D01*
X69327Y-68369D01*
X69305Y-68425D01*
X69304Y-68484D01*
X69304Y-69074D01*
X69327Y-69129D01*
X69369Y-69172D01*
X69425Y-69194D01*
X69484Y-69195D01*
X70369Y-69195D01*
X70424Y-69172D01*
X70467Y-69130D01*
X70489Y-69074D01*
X70490Y-69015D01*
X70490Y-69691D01*
X70467Y-69579D01*
X70371Y-69435D01*
X70226Y-69338D01*
X70056Y-69305D01*
X69738Y-69305D01*
X69568Y-69338D01*
X69423Y-69435D01*
X69327Y-69579D01*
X69293Y-69750D01*
X69327Y-69920D01*
X69423Y-70064D01*
X69568Y-70161D01*
X69738Y-70195D01*
X70056Y-70195D01*
X70226Y-70161D01*
X70371Y-70064D01*
X70467Y-69920D01*
X70501Y-69750D01*
X70501Y-70750D01*
X70467Y-70579D01*
X70371Y-70435D01*
X70226Y-70338D01*
X70056Y-70305D01*
X69738Y-70305D01*
X69568Y-70338D01*
X69423Y-70435D01*
X69327Y-70579D01*
X69293Y-70750D01*
X69327Y-70920D01*
X69423Y-71064D01*
X69568Y-71161D01*
X69738Y-71195D01*
X70056Y-71195D01*
X70226Y-71161D01*
X70371Y-71064D01*
X70467Y-70920D01*
X70501Y-70750D01*
X70501Y-71750D01*
X70467Y-71579D01*
X70371Y-71435D01*
X70226Y-71338D01*
X70056Y-71305D01*
X69738Y-71305D01*
X69568Y-71338D01*
X69423Y-71435D01*
X69327Y-71579D01*
X69293Y-71750D01*
X69327Y-71920D01*
X69423Y-72064D01*
X69568Y-72161D01*
X69738Y-72195D01*
X70056Y-72195D01*
X70226Y-72161D01*
X70371Y-72064D01*
X70467Y-71920D01*
X70501Y-71750D01*
X70501Y-76554D01*
X69925Y-76554D01*
X69870Y-76577D01*
X69827Y-76619D01*
X69805Y-76675D01*
X69804Y-76734D01*
X69804Y-77874D01*
X69827Y-77929D01*
X69869Y-77972D01*
X69925Y-77994D01*
X69984Y-77995D01*
X70574Y-77995D01*
X70629Y-77972D01*
X70672Y-77930D01*
X70694Y-77874D01*
X70695Y-77815D01*
X70695Y-78125D01*
X70672Y-78070D01*
X70630Y-78027D01*
X70574Y-78005D01*
X70515Y-78004D01*
X70337Y-78005D01*
X70300Y-78042D01*
X70300Y-78675D01*
X70657Y-78675D01*
X70695Y-78637D01*
X70695Y-78125D01*
X70695Y-79200D01*
X70695Y-79200D01*
X70695Y-78812D01*
X70657Y-78775D01*
X70300Y-78775D01*
X70300Y-78782D01*
X70200Y-78782D01*
X70200Y-78775D01*
X70200Y-78675D01*
X70200Y-78042D01*
X70162Y-78005D01*
X69984Y-78004D01*
X69925Y-78005D01*
X69869Y-78027D01*
X69827Y-78070D01*
X69804Y-78125D01*
X69805Y-78637D01*
X69842Y-78675D01*
X70200Y-78675D01*
X70200Y-78775D01*
X69842Y-78775D01*
X69805Y-78812D01*
X69804Y-79200D01*
X69254Y-79200D01*
X69254Y-73250D01*
X69217Y-73060D01*
X69195Y-73027D01*
X69195Y-72515D01*
X69195Y-71375D01*
X69195Y-71065D01*
X69195Y-69925D01*
X69172Y-69870D01*
X69130Y-69827D01*
X69074Y-69805D01*
X69015Y-69804D01*
X68469Y-69804D01*
X68469Y-65486D01*
X68212Y-65230D01*
X68141Y-65300D01*
X68141Y-65159D01*
X67885Y-64902D01*
X67818Y-64934D01*
X67762Y-65102D01*
X67775Y-65279D01*
X67818Y-65384D01*
X67885Y-65416D01*
X68141Y-65159D01*
X68141Y-65300D01*
X67955Y-65486D01*
X67987Y-65553D01*
X68155Y-65609D01*
X68332Y-65597D01*
X68437Y-65553D01*
X68469Y-65486D01*
X68469Y-69804D01*
X68425Y-69804D01*
X68370Y-69827D01*
X68327Y-69869D01*
X68305Y-69925D01*
X68304Y-69984D01*
X68304Y-71124D01*
X68327Y-71179D01*
X68369Y-71222D01*
X68425Y-71244D01*
X68484Y-71245D01*
X69074Y-71245D01*
X69129Y-71222D01*
X69172Y-71180D01*
X69194Y-71124D01*
X69195Y-71065D01*
X69195Y-71375D01*
X69172Y-71320D01*
X69130Y-71277D01*
X69074Y-71255D01*
X69015Y-71254D01*
X68425Y-71254D01*
X68370Y-71277D01*
X68327Y-71319D01*
X68305Y-71375D01*
X68304Y-71434D01*
X68304Y-72574D01*
X68327Y-72629D01*
X68369Y-72672D01*
X68425Y-72694D01*
X68484Y-72695D01*
X69074Y-72695D01*
X69129Y-72672D01*
X69172Y-72630D01*
X69194Y-72574D01*
X69195Y-72515D01*
X69195Y-73027D01*
X69109Y-72899D01*
X68949Y-72792D01*
X68759Y-72755D01*
X68740Y-72755D01*
X68550Y-72792D01*
X68390Y-72899D01*
X68282Y-73060D01*
X68245Y-73250D01*
X68282Y-73439D01*
X68390Y-73600D01*
X68550Y-73707D01*
X68740Y-73745D01*
X68759Y-73745D01*
X68949Y-73707D01*
X69109Y-73600D01*
X69217Y-73439D01*
X69254Y-73250D01*
X69254Y-79200D01*
X69245Y-79200D01*
X69245Y-74901D01*
X69169Y-74719D01*
X69030Y-74580D01*
X68848Y-74505D01*
X68651Y-74504D01*
X68469Y-74580D01*
X68330Y-74719D01*
X68255Y-74901D01*
X68254Y-75098D01*
X68330Y-75280D01*
X68469Y-75419D01*
X68651Y-75494D01*
X68848Y-75495D01*
X69030Y-75419D01*
X69169Y-75280D01*
X69244Y-75098D01*
X69245Y-74901D01*
X69245Y-79200D01*
X68147Y-79200D01*
X68161Y-79179D01*
X68195Y-79008D01*
X68195Y-78991D01*
X68195Y-75008D01*
X68195Y-74991D01*
X68161Y-74820D01*
X68064Y-74676D01*
X67945Y-74596D01*
X67945Y-71758D01*
X67945Y-71741D01*
X67945Y-67758D01*
X67945Y-67741D01*
X67911Y-67570D01*
X67814Y-67426D01*
X67670Y-67330D01*
X67500Y-67296D01*
X67329Y-67330D01*
X67185Y-67426D01*
X67088Y-67570D01*
X67055Y-67741D01*
X67055Y-67758D01*
X67088Y-67929D01*
X67185Y-68073D01*
X67329Y-68169D01*
X67500Y-68203D01*
X67670Y-68169D01*
X67814Y-68073D01*
X67911Y-67929D01*
X67945Y-67758D01*
X67945Y-71741D01*
X67911Y-71570D01*
X67814Y-71426D01*
X67670Y-71330D01*
X67500Y-71296D01*
X67329Y-71330D01*
X67185Y-71426D01*
X67088Y-71570D01*
X67055Y-71741D01*
X67055Y-71758D01*
X67088Y-71929D01*
X67185Y-72073D01*
X67329Y-72169D01*
X67500Y-72203D01*
X67670Y-72169D01*
X67814Y-72073D01*
X67911Y-71929D01*
X67945Y-71758D01*
X67945Y-74596D01*
X67920Y-74580D01*
X67750Y-74546D01*
X67579Y-74580D01*
X67435Y-74676D01*
X67338Y-74820D01*
X67305Y-74991D01*
X67305Y-75008D01*
X67338Y-75179D01*
X67435Y-75323D01*
X67579Y-75419D01*
X67750Y-75453D01*
X67920Y-75419D01*
X68064Y-75323D01*
X68161Y-75179D01*
X68195Y-75008D01*
X68195Y-78991D01*
X68161Y-78820D01*
X68064Y-78676D01*
X67920Y-78580D01*
X67750Y-78546D01*
X67579Y-78580D01*
X67435Y-78676D01*
X67338Y-78820D01*
X67305Y-78991D01*
X67305Y-79008D01*
X67338Y-79179D01*
X67352Y-79200D01*
X66945Y-79200D01*
X66945Y-71758D01*
X66945Y-71741D01*
X66945Y-67758D01*
X66945Y-67741D01*
X66911Y-67570D01*
X66814Y-67426D01*
X66670Y-67330D01*
X66500Y-67296D01*
X66329Y-67330D01*
X66185Y-67426D01*
X66088Y-67570D01*
X66055Y-67741D01*
X66055Y-67758D01*
X66088Y-67929D01*
X66185Y-68073D01*
X66329Y-68169D01*
X66500Y-68203D01*
X66670Y-68169D01*
X66814Y-68073D01*
X66911Y-67929D01*
X66945Y-67758D01*
X66945Y-71741D01*
X66911Y-71570D01*
X66814Y-71426D01*
X66670Y-71330D01*
X66500Y-71296D01*
X66329Y-71330D01*
X66185Y-71426D01*
X66088Y-71570D01*
X66055Y-71741D01*
X66055Y-71758D01*
X66088Y-71929D01*
X66185Y-72073D01*
X66329Y-72169D01*
X66500Y-72203D01*
X66670Y-72169D01*
X66814Y-72073D01*
X66911Y-71929D01*
X66945Y-71758D01*
X66945Y-79200D01*
X66182Y-79200D01*
X66377Y-79004D01*
X66580Y-78515D01*
X66581Y-77986D01*
X66379Y-77496D01*
X66004Y-77122D01*
X65945Y-77097D01*
X65945Y-71758D01*
X65945Y-71741D01*
X65945Y-67758D01*
X65945Y-67741D01*
X65911Y-67570D01*
X65814Y-67426D01*
X65670Y-67330D01*
X65500Y-67296D01*
X65329Y-67330D01*
X65299Y-67350D01*
X65299Y-64330D01*
X65288Y-64114D01*
X65227Y-63965D01*
X65150Y-63920D01*
X65079Y-63991D01*
X65079Y-63849D01*
X65034Y-63772D01*
X64830Y-63700D01*
X64614Y-63711D01*
X64465Y-63772D01*
X64420Y-63849D01*
X64750Y-64179D01*
X65079Y-63849D01*
X65079Y-63991D01*
X64820Y-64250D01*
X65150Y-64579D01*
X65227Y-64534D01*
X65299Y-64330D01*
X65299Y-67350D01*
X65185Y-67426D01*
X65088Y-67570D01*
X65055Y-67741D01*
X65055Y-67758D01*
X65088Y-67929D01*
X65185Y-68073D01*
X65329Y-68169D01*
X65500Y-68203D01*
X65670Y-68169D01*
X65814Y-68073D01*
X65911Y-67929D01*
X65945Y-67758D01*
X65945Y-71741D01*
X65911Y-71570D01*
X65814Y-71426D01*
X65670Y-71330D01*
X65500Y-71296D01*
X65329Y-71330D01*
X65185Y-71426D01*
X65088Y-71570D01*
X65055Y-71741D01*
X65055Y-71758D01*
X65088Y-71929D01*
X65185Y-72073D01*
X65329Y-72169D01*
X65500Y-72203D01*
X65670Y-72169D01*
X65814Y-72073D01*
X65911Y-71929D01*
X65945Y-71758D01*
X65945Y-77097D01*
X65515Y-76919D01*
X65299Y-76918D01*
X65299Y-73330D01*
X65288Y-73114D01*
X65227Y-72965D01*
X65150Y-72920D01*
X65079Y-72991D01*
X65079Y-72849D01*
X65034Y-72772D01*
X64830Y-72700D01*
X64614Y-72711D01*
X64465Y-72772D01*
X64420Y-72849D01*
X64750Y-73179D01*
X65079Y-72849D01*
X65079Y-72991D01*
X64820Y-73250D01*
X65150Y-73579D01*
X65227Y-73534D01*
X65299Y-73330D01*
X65299Y-76918D01*
X64986Y-76918D01*
X64496Y-77120D01*
X64300Y-77317D01*
X64300Y-75784D01*
X64325Y-75794D01*
X64384Y-75795D01*
X65174Y-75795D01*
X65229Y-75772D01*
X65272Y-75730D01*
X65294Y-75674D01*
X65295Y-75615D01*
X65295Y-74825D01*
X65272Y-74770D01*
X65230Y-74727D01*
X65174Y-74705D01*
X65115Y-74704D01*
X65079Y-74704D01*
X65079Y-73650D01*
X64750Y-73320D01*
X64420Y-73650D01*
X64465Y-73727D01*
X64669Y-73799D01*
X64885Y-73788D01*
X65034Y-73727D01*
X65079Y-73650D01*
X65079Y-74704D01*
X64325Y-74704D01*
X64300Y-74715D01*
X64300Y-73550D01*
X64349Y-73579D01*
X64679Y-73250D01*
X64349Y-72920D01*
X64300Y-72949D01*
X64300Y-72149D01*
X64329Y-72169D01*
X64500Y-72203D01*
X64670Y-72169D01*
X64814Y-72073D01*
X64911Y-71929D01*
X64945Y-71758D01*
X64945Y-71741D01*
X64911Y-71570D01*
X64814Y-71426D01*
X64670Y-71330D01*
X64500Y-71296D01*
X64329Y-71330D01*
X64300Y-71350D01*
X64300Y-68149D01*
X64329Y-68169D01*
X64500Y-68203D01*
X64670Y-68169D01*
X64814Y-68073D01*
X64911Y-67929D01*
X64945Y-67758D01*
X64945Y-67741D01*
X64911Y-67570D01*
X64814Y-67426D01*
X64670Y-67330D01*
X64500Y-67296D01*
X64329Y-67330D01*
X64300Y-67350D01*
X64300Y-66784D01*
X64325Y-66794D01*
X64384Y-66795D01*
X65174Y-66795D01*
X65229Y-66772D01*
X65272Y-66730D01*
X65294Y-66674D01*
X65295Y-66615D01*
X65295Y-65825D01*
X65272Y-65770D01*
X65230Y-65727D01*
X65174Y-65705D01*
X65115Y-65704D01*
X65079Y-65704D01*
X65079Y-64650D01*
X64750Y-64320D01*
X64420Y-64650D01*
X64465Y-64727D01*
X64669Y-64799D01*
X64885Y-64788D01*
X65034Y-64727D01*
X65079Y-64650D01*
X65079Y-65704D01*
X64325Y-65704D01*
X64300Y-65715D01*
X64300Y-64550D01*
X64349Y-64579D01*
X64679Y-64250D01*
X64349Y-63920D01*
X64300Y-63949D01*
X64300Y-62182D01*
X64495Y-62377D01*
X64984Y-62580D01*
X65513Y-62581D01*
X66003Y-62379D01*
X66377Y-62004D01*
X66580Y-61515D01*
X66581Y-60986D01*
X66379Y-60496D01*
X66182Y-60300D01*
X71350Y-60300D01*
X71330Y-60329D01*
X71296Y-60500D01*
X71330Y-60670D01*
X71426Y-60814D01*
X71570Y-60911D01*
X71741Y-60945D01*
X71758Y-60945D01*
X71929Y-60911D01*
X72073Y-60814D01*
X72169Y-60670D01*
X72203Y-60500D01*
X72169Y-60329D01*
X72149Y-60300D01*
X75350Y-60300D01*
X75330Y-60329D01*
X75296Y-60500D01*
X75330Y-60670D01*
X75426Y-60814D01*
X75570Y-60911D01*
X75741Y-60945D01*
X75758Y-60945D01*
X75929Y-60911D01*
X76073Y-60814D01*
X76169Y-60670D01*
X76203Y-60500D01*
X76169Y-60329D01*
X76149Y-60300D01*
X76454Y-60300D01*
X76454Y-60924D01*
X76477Y-60979D01*
X76519Y-61022D01*
X76575Y-61044D01*
X76634Y-61045D01*
X77424Y-61045D01*
X77479Y-61022D01*
X77522Y-60980D01*
X77544Y-60924D01*
X77545Y-60865D01*
X77545Y-60300D01*
X78492Y-60300D01*
X78450Y-60419D01*
X78461Y-60635D01*
X78522Y-60784D01*
X78599Y-60829D01*
X78929Y-60500D01*
X78923Y-60494D01*
X78994Y-60423D01*
X79000Y-60429D01*
X79005Y-60423D01*
X79076Y-60494D01*
X79070Y-60500D01*
X79400Y-60829D01*
X79477Y-60784D01*
X79549Y-60580D01*
X79538Y-60364D01*
X79512Y-60300D01*
X81317Y-60300D01*
X81122Y-60495D01*
X80919Y-60984D01*
X80918Y-61513D01*
X81120Y-62003D01*
X81495Y-62377D01*
X81984Y-62580D01*
X82513Y-62581D01*
X83003Y-62379D01*
X83200Y-62182D01*
X83200Y-67362D01*
X83118Y-67321D01*
X83050Y-67345D01*
X83050Y-67700D01*
X83057Y-67700D01*
X83057Y-67800D01*
X83050Y-67800D01*
X83050Y-68154D01*
X83118Y-68178D01*
X83200Y-68137D01*
X83200Y-68362D01*
X83118Y-68321D01*
X83050Y-68345D01*
X83050Y-68700D01*
X83057Y-68700D01*
X83057Y-68800D01*
X83050Y-68800D01*
X83050Y-69154D01*
X83118Y-69178D01*
X83200Y-69137D01*
X83200Y-69362D01*
X83118Y-69321D01*
X83050Y-69345D01*
X83050Y-69700D01*
X83057Y-69700D01*
X83057Y-69800D01*
X83050Y-69800D01*
X83050Y-70154D01*
X83118Y-70178D01*
X83200Y-70137D01*
X83200Y-70362D01*
X83118Y-70321D01*
X83050Y-70345D01*
X83050Y-70700D01*
X83057Y-70700D01*
X83057Y-70800D01*
X83050Y-70800D01*
X83050Y-71154D01*
X83118Y-71178D01*
X83200Y-71137D01*
X83200Y-73449D01*
X83150Y-73420D01*
X83079Y-73491D01*
X83079Y-73349D01*
X83034Y-73272D01*
X82950Y-73242D01*
X82950Y-71154D01*
X82950Y-70800D01*
X82950Y-70700D01*
X82950Y-70345D01*
X82950Y-70154D01*
X82950Y-69800D01*
X82950Y-69700D01*
X82950Y-69345D01*
X82950Y-69154D01*
X82950Y-68800D01*
X82950Y-68700D01*
X82950Y-68345D01*
X82950Y-68154D01*
X82950Y-67800D01*
X82950Y-67700D01*
X82950Y-67345D01*
X82881Y-67321D01*
X82726Y-67399D01*
X82639Y-67500D01*
X82639Y-65306D01*
X82626Y-65130D01*
X82583Y-65025D01*
X82540Y-65004D01*
X82540Y-64519D01*
X82528Y-64342D01*
X82484Y-64237D01*
X82418Y-64205D01*
X82347Y-64276D01*
X82347Y-64135D01*
X82315Y-64068D01*
X82147Y-64012D01*
X81970Y-64025D01*
X81865Y-64068D01*
X81833Y-64135D01*
X82090Y-64391D01*
X82347Y-64135D01*
X82347Y-64276D01*
X82161Y-64462D01*
X82418Y-64719D01*
X82484Y-64687D01*
X82540Y-64519D01*
X82540Y-65004D01*
X82516Y-64993D01*
X82445Y-65063D01*
X82445Y-64922D01*
X82413Y-64855D01*
X82329Y-64827D01*
X82347Y-64790D01*
X82090Y-64533D01*
X82019Y-64604D01*
X82019Y-64462D01*
X81763Y-64205D01*
X81696Y-64237D01*
X81640Y-64405D01*
X81652Y-64582D01*
X81696Y-64687D01*
X81763Y-64719D01*
X82019Y-64462D01*
X82019Y-64604D01*
X81833Y-64790D01*
X81865Y-64856D01*
X81950Y-64884D01*
X81932Y-64922D01*
X82188Y-65179D01*
X82445Y-64922D01*
X82445Y-65063D01*
X82259Y-65250D01*
X82516Y-65506D01*
X82583Y-65474D01*
X82639Y-65306D01*
X82639Y-67500D01*
X82612Y-67530D01*
X82571Y-67631D01*
X82595Y-67700D01*
X82950Y-67700D01*
X82950Y-67800D01*
X82595Y-67800D01*
X82571Y-67868D01*
X82612Y-67969D01*
X82726Y-68100D01*
X82881Y-68178D01*
X82950Y-68154D01*
X82950Y-68345D01*
X82881Y-68321D01*
X82726Y-68399D01*
X82612Y-68530D01*
X82571Y-68631D01*
X82595Y-68700D01*
X82950Y-68700D01*
X82950Y-68800D01*
X82595Y-68800D01*
X82571Y-68868D01*
X82612Y-68969D01*
X82726Y-69100D01*
X82881Y-69178D01*
X82950Y-69154D01*
X82950Y-69345D01*
X82881Y-69321D01*
X82726Y-69399D01*
X82612Y-69530D01*
X82571Y-69631D01*
X82595Y-69700D01*
X82950Y-69700D01*
X82950Y-69800D01*
X82595Y-69800D01*
X82571Y-69868D01*
X82612Y-69969D01*
X82726Y-70100D01*
X82881Y-70178D01*
X82950Y-70154D01*
X82950Y-70345D01*
X82881Y-70321D01*
X82726Y-70399D01*
X82612Y-70530D01*
X82571Y-70631D01*
X82595Y-70700D01*
X82950Y-70700D01*
X82950Y-70800D01*
X82595Y-70800D01*
X82571Y-70868D01*
X82612Y-70969D01*
X82726Y-71100D01*
X82881Y-71178D01*
X82950Y-71154D01*
X82950Y-73242D01*
X82830Y-73200D01*
X82614Y-73211D01*
X82465Y-73272D01*
X82445Y-73306D01*
X82445Y-65577D01*
X82188Y-65320D01*
X82118Y-65391D01*
X82118Y-65250D01*
X81861Y-64993D01*
X81794Y-65025D01*
X81738Y-65193D01*
X81751Y-65369D01*
X81794Y-65474D01*
X81861Y-65506D01*
X82118Y-65250D01*
X82118Y-65391D01*
X81932Y-65577D01*
X81964Y-65644D01*
X82132Y-65700D01*
X82308Y-65687D01*
X82413Y-65644D01*
X82445Y-65577D01*
X82445Y-73306D01*
X82420Y-73349D01*
X82750Y-73679D01*
X83079Y-73349D01*
X83079Y-73491D01*
X82820Y-73750D01*
X83150Y-74079D01*
X83200Y-74050D01*
X83200Y-75215D01*
X83174Y-75205D01*
X83115Y-75204D01*
X83079Y-75204D01*
X83079Y-74150D01*
X82750Y-73820D01*
X82679Y-73891D01*
X82679Y-73750D01*
X82349Y-73420D01*
X82272Y-73465D01*
X82200Y-73669D01*
X82211Y-73885D01*
X82272Y-74034D01*
X82349Y-74079D01*
X82679Y-73750D01*
X82679Y-73891D01*
X82420Y-74150D01*
X82465Y-74227D01*
X82669Y-74299D01*
X82885Y-74288D01*
X83034Y-74227D01*
X83079Y-74150D01*
X83079Y-75204D01*
X82325Y-75204D01*
X82270Y-75227D01*
X82227Y-75269D01*
X82205Y-75325D01*
X82204Y-75384D01*
X82204Y-76174D01*
X82227Y-76229D01*
X82269Y-76272D01*
X82325Y-76294D01*
X82384Y-76295D01*
X83174Y-76295D01*
X83200Y-76284D01*
X83200Y-77317D01*
X83200Y-77317D01*
G37*
G54D24*
X83200Y-77317D02*
X83004Y-77122D01*
X82515Y-76919D01*
X81986Y-76918D01*
X81496Y-77120D01*
X81354Y-77263D01*
X81354Y-65949D01*
X81286Y-65785D01*
X81161Y-65660D01*
X81068Y-65621D01*
X81188Y-65502D01*
X81255Y-65338D01*
X81256Y-65161D01*
X81188Y-64998D01*
X81063Y-64872D01*
X80899Y-64805D01*
X80722Y-64804D01*
X80559Y-64872D01*
X80433Y-64997D01*
X80366Y-65161D01*
X80365Y-65338D01*
X80433Y-65501D01*
X80558Y-65627D01*
X80651Y-65665D01*
X80532Y-65785D01*
X80464Y-65948D01*
X80464Y-66125D01*
X80531Y-66289D01*
X80657Y-66414D01*
X80820Y-66482D01*
X80997Y-66482D01*
X81161Y-66414D01*
X81286Y-66289D01*
X81354Y-66126D01*
X81354Y-65949D01*
X81354Y-77263D01*
X81232Y-77384D01*
X81232Y-74252D01*
X81164Y-74088D01*
X81039Y-73963D01*
X80876Y-73895D01*
X80699Y-73895D01*
X80535Y-73963D01*
X80450Y-74048D01*
X80450Y-73117D01*
X80437Y-72941D01*
X80394Y-72836D01*
X80327Y-72804D01*
X80256Y-72874D01*
X80256Y-72733D01*
X80224Y-72666D01*
X80056Y-72610D01*
X79880Y-72623D01*
X79775Y-72666D01*
X79743Y-72733D01*
X80000Y-72990D01*
X80256Y-72733D01*
X80256Y-72874D01*
X80070Y-73061D01*
X80327Y-73317D01*
X80394Y-73285D01*
X80450Y-73117D01*
X80450Y-74048D01*
X80410Y-74088D01*
X80371Y-74181D01*
X80256Y-74066D01*
X80256Y-73388D01*
X80000Y-73131D01*
X79929Y-73202D01*
X79929Y-73061D01*
X79672Y-72804D01*
X79605Y-72836D01*
X79577Y-72920D01*
X79540Y-72902D01*
X79469Y-72973D01*
X79469Y-72831D01*
X79453Y-72799D01*
X79453Y-70750D01*
X79453Y-69750D01*
X79453Y-68750D01*
X79453Y-67750D01*
X79445Y-67706D01*
X79445Y-63015D01*
X79445Y-62484D01*
X79444Y-62425D01*
X79422Y-62369D01*
X79379Y-62327D01*
X79329Y-62306D01*
X79329Y-60900D01*
X79000Y-60570D01*
X78670Y-60900D01*
X78715Y-60977D01*
X78919Y-61049D01*
X79135Y-61038D01*
X79284Y-60977D01*
X79329Y-60900D01*
X79329Y-62306D01*
X79324Y-62304D01*
X78812Y-62305D01*
X78775Y-62342D01*
X78775Y-62700D01*
X79407Y-62700D01*
X79445Y-62662D01*
X79445Y-62484D01*
X79445Y-63015D01*
X79445Y-62837D01*
X79407Y-62800D01*
X78775Y-62800D01*
X78775Y-63157D01*
X78812Y-63195D01*
X79324Y-63195D01*
X79379Y-63172D01*
X79422Y-63130D01*
X79444Y-63074D01*
X79445Y-63015D01*
X79445Y-67706D01*
X79419Y-67579D01*
X79323Y-67435D01*
X79245Y-67383D01*
X79245Y-65151D01*
X79169Y-64969D01*
X79030Y-64830D01*
X78848Y-64755D01*
X78675Y-64754D01*
X78675Y-63157D01*
X78675Y-62800D01*
X78675Y-62700D01*
X78675Y-62342D01*
X78637Y-62305D01*
X78125Y-62304D01*
X78070Y-62327D01*
X78027Y-62369D01*
X78005Y-62425D01*
X78004Y-62484D01*
X78005Y-62662D01*
X78042Y-62700D01*
X78675Y-62700D01*
X78675Y-62800D01*
X78042Y-62800D01*
X78005Y-62837D01*
X78004Y-63015D01*
X78005Y-63074D01*
X78027Y-63130D01*
X78070Y-63172D01*
X78125Y-63195D01*
X78637Y-63195D01*
X78675Y-63157D01*
X78675Y-64754D01*
X78651Y-64754D01*
X78469Y-64830D01*
X78330Y-64969D01*
X78255Y-65151D01*
X78254Y-65348D01*
X78330Y-65530D01*
X78469Y-65669D01*
X78651Y-65744D01*
X78848Y-65745D01*
X79030Y-65669D01*
X79169Y-65530D01*
X79244Y-65348D01*
X79245Y-65151D01*
X79245Y-67383D01*
X79203Y-67355D01*
X79203Y-66750D01*
X79169Y-66579D01*
X79073Y-66435D01*
X78929Y-66338D01*
X78758Y-66305D01*
X78741Y-66305D01*
X78570Y-66338D01*
X78426Y-66435D01*
X78330Y-66579D01*
X78296Y-66750D01*
X78330Y-66920D01*
X78426Y-67064D01*
X78570Y-67161D01*
X78741Y-67195D01*
X78758Y-67195D01*
X78929Y-67161D01*
X79073Y-67064D01*
X79169Y-66920D01*
X79203Y-66750D01*
X79203Y-67355D01*
X79179Y-67338D01*
X79008Y-67305D01*
X78991Y-67305D01*
X78820Y-67338D01*
X78676Y-67435D01*
X78580Y-67579D01*
X78546Y-67750D01*
X78580Y-67920D01*
X78676Y-68064D01*
X78820Y-68161D01*
X78991Y-68195D01*
X79008Y-68195D01*
X79179Y-68161D01*
X79323Y-68064D01*
X79419Y-67920D01*
X79453Y-67750D01*
X79453Y-68750D01*
X79419Y-68579D01*
X79323Y-68435D01*
X79179Y-68338D01*
X79008Y-68305D01*
X78991Y-68305D01*
X78820Y-68338D01*
X78676Y-68435D01*
X78580Y-68579D01*
X78546Y-68750D01*
X78580Y-68920D01*
X78676Y-69064D01*
X78820Y-69161D01*
X78991Y-69195D01*
X79008Y-69195D01*
X79179Y-69161D01*
X79323Y-69064D01*
X79419Y-68920D01*
X79453Y-68750D01*
X79453Y-69750D01*
X79419Y-69579D01*
X79323Y-69435D01*
X79179Y-69338D01*
X79008Y-69305D01*
X78991Y-69305D01*
X78820Y-69338D01*
X78676Y-69435D01*
X78580Y-69579D01*
X78546Y-69750D01*
X78580Y-69920D01*
X78676Y-70064D01*
X78820Y-70161D01*
X78991Y-70195D01*
X79008Y-70195D01*
X79179Y-70161D01*
X79323Y-70064D01*
X79419Y-69920D01*
X79453Y-69750D01*
X79453Y-70750D01*
X79419Y-70579D01*
X79323Y-70435D01*
X79179Y-70338D01*
X79008Y-70305D01*
X78991Y-70305D01*
X78820Y-70338D01*
X78676Y-70435D01*
X78580Y-70579D01*
X78546Y-70750D01*
X78580Y-70920D01*
X78676Y-71064D01*
X78820Y-71161D01*
X78991Y-71195D01*
X79008Y-71195D01*
X79179Y-71161D01*
X79323Y-71064D01*
X79419Y-70920D01*
X79453Y-70750D01*
X79453Y-72799D01*
X79437Y-72765D01*
X79269Y-72709D01*
X79092Y-72721D01*
X78987Y-72765D01*
X78955Y-72831D01*
X79212Y-73088D01*
X79469Y-72831D01*
X79469Y-72973D01*
X79283Y-73159D01*
X79540Y-73416D01*
X79606Y-73384D01*
X79634Y-73299D01*
X79672Y-73317D01*
X79929Y-73061D01*
X79929Y-73202D01*
X79743Y-73388D01*
X79775Y-73455D01*
X79943Y-73511D01*
X80119Y-73498D01*
X80224Y-73455D01*
X80256Y-73388D01*
X80256Y-74066D01*
X80252Y-74061D01*
X80088Y-73994D01*
X79911Y-73993D01*
X79748Y-74061D01*
X79622Y-74186D01*
X79555Y-74350D01*
X79554Y-74527D01*
X79622Y-74690D01*
X79747Y-74816D01*
X79911Y-74883D01*
X80088Y-74884D01*
X80251Y-74816D01*
X80377Y-74691D01*
X80415Y-74598D01*
X80535Y-74717D01*
X80698Y-74785D01*
X80875Y-74785D01*
X81039Y-74718D01*
X81164Y-74592D01*
X81232Y-74429D01*
X81232Y-74252D01*
X81232Y-77384D01*
X81122Y-77495D01*
X80919Y-77984D01*
X80918Y-78513D01*
X81120Y-79003D01*
X81317Y-79200D01*
X79750Y-79200D01*
X79750Y-78068D01*
X79738Y-77872D01*
X79685Y-77745D01*
X79613Y-77706D01*
X79543Y-77777D01*
X79543Y-77636D01*
X79504Y-77564D01*
X79469Y-77552D01*
X79469Y-73486D01*
X79212Y-73230D01*
X79141Y-73300D01*
X79141Y-73159D01*
X78885Y-72902D01*
X78818Y-72934D01*
X78762Y-73102D01*
X78775Y-73279D01*
X78818Y-73384D01*
X78885Y-73416D01*
X79141Y-73159D01*
X79141Y-73300D01*
X78955Y-73486D01*
X78987Y-73553D01*
X79155Y-73609D01*
X79332Y-73597D01*
X79437Y-73553D01*
X79469Y-73486D01*
X79469Y-77552D01*
X79318Y-77499D01*
X79122Y-77511D01*
X78995Y-77564D01*
X78956Y-77636D01*
X79250Y-77929D01*
X79543Y-77636D01*
X79543Y-77777D01*
X79320Y-78000D01*
X79613Y-78293D01*
X79685Y-78254D01*
X79750Y-78068D01*
X79750Y-79200D01*
X79543Y-79200D01*
X79543Y-78363D01*
X79250Y-78070D01*
X79179Y-78141D01*
X79179Y-78000D01*
X78886Y-77706D01*
X78814Y-77745D01*
X78749Y-77931D01*
X78761Y-78127D01*
X78814Y-78254D01*
X78886Y-78293D01*
X79179Y-78000D01*
X79179Y-78141D01*
X78956Y-78363D01*
X78995Y-78435D01*
X79181Y-78500D01*
X79377Y-78488D01*
X79504Y-78435D01*
X79543Y-78363D01*
X79543Y-79200D01*
X78750Y-79200D01*
X78750Y-78068D01*
X78738Y-77872D01*
X78685Y-77745D01*
X78613Y-77706D01*
X78543Y-77777D01*
X78543Y-77636D01*
X78504Y-77564D01*
X78445Y-77543D01*
X78445Y-71758D01*
X78445Y-71741D01*
X78445Y-67758D01*
X78445Y-67741D01*
X78411Y-67570D01*
X78314Y-67426D01*
X78170Y-67330D01*
X78000Y-67296D01*
X77995Y-67297D01*
X77995Y-63015D01*
X77995Y-62425D01*
X77972Y-62370D01*
X77930Y-62327D01*
X77874Y-62305D01*
X77815Y-62304D01*
X76675Y-62304D01*
X76620Y-62327D01*
X76577Y-62369D01*
X76555Y-62425D01*
X76554Y-62484D01*
X76554Y-63074D01*
X76577Y-63129D01*
X76619Y-63172D01*
X76675Y-63194D01*
X76734Y-63195D01*
X77874Y-63195D01*
X77929Y-63172D01*
X77972Y-63130D01*
X77994Y-63074D01*
X77995Y-63015D01*
X77995Y-67297D01*
X77829Y-67330D01*
X77685Y-67426D01*
X77588Y-67570D01*
X77555Y-67741D01*
X77555Y-67758D01*
X77588Y-67929D01*
X77685Y-68073D01*
X77829Y-68169D01*
X78000Y-68203D01*
X78170Y-68169D01*
X78314Y-68073D01*
X78411Y-67929D01*
X78445Y-67758D01*
X78445Y-71741D01*
X78411Y-71570D01*
X78314Y-71426D01*
X78170Y-71330D01*
X78000Y-71296D01*
X77829Y-71330D01*
X77685Y-71426D01*
X77588Y-71570D01*
X77555Y-71741D01*
X77555Y-71758D01*
X77588Y-71929D01*
X77685Y-72073D01*
X77829Y-72169D01*
X78000Y-72203D01*
X78170Y-72169D01*
X78314Y-72073D01*
X78411Y-71929D01*
X78445Y-71758D01*
X78445Y-77543D01*
X78318Y-77499D01*
X78122Y-77511D01*
X77995Y-77564D01*
X77956Y-77636D01*
X78250Y-77929D01*
X78543Y-77636D01*
X78543Y-77777D01*
X78320Y-78000D01*
X78613Y-78293D01*
X78685Y-78254D01*
X78750Y-78068D01*
X78750Y-79200D01*
X78543Y-79200D01*
X78543Y-78363D01*
X78250Y-78070D01*
X78179Y-78141D01*
X78179Y-78000D01*
X77886Y-77706D01*
X77814Y-77745D01*
X77749Y-77931D01*
X77761Y-78127D01*
X77814Y-78254D01*
X77886Y-78293D01*
X78179Y-78000D01*
X78179Y-78141D01*
X77956Y-78363D01*
X77995Y-78435D01*
X78181Y-78500D01*
X78377Y-78488D01*
X78504Y-78435D01*
X78543Y-78363D01*
X78543Y-79200D01*
X77745Y-79200D01*
X77745Y-78315D01*
X77745Y-77625D01*
X77722Y-77570D01*
X77680Y-77527D01*
X77624Y-77505D01*
X77565Y-77504D01*
X77445Y-77504D01*
X77445Y-71758D01*
X77445Y-71741D01*
X77445Y-67758D01*
X77445Y-67741D01*
X77411Y-67570D01*
X77314Y-67426D01*
X77170Y-67330D01*
X77000Y-67296D01*
X76829Y-67330D01*
X76685Y-67426D01*
X76588Y-67570D01*
X76555Y-67741D01*
X76555Y-67758D01*
X76588Y-67929D01*
X76685Y-68073D01*
X76829Y-68169D01*
X77000Y-68203D01*
X77170Y-68169D01*
X77314Y-68073D01*
X77411Y-67929D01*
X77445Y-67758D01*
X77445Y-71741D01*
X77411Y-71570D01*
X77314Y-71426D01*
X77170Y-71330D01*
X77000Y-71296D01*
X76829Y-71330D01*
X76685Y-71426D01*
X76588Y-71570D01*
X76555Y-71741D01*
X76555Y-71758D01*
X76588Y-71929D01*
X76685Y-72073D01*
X76829Y-72169D01*
X77000Y-72203D01*
X77170Y-72169D01*
X77314Y-72073D01*
X77411Y-71929D01*
X77445Y-71758D01*
X77445Y-77504D01*
X76875Y-77504D01*
X76820Y-77527D01*
X76777Y-77569D01*
X76755Y-77625D01*
X76754Y-77684D01*
X76754Y-78374D01*
X76777Y-78429D01*
X76819Y-78472D01*
X76875Y-78494D01*
X76934Y-78495D01*
X77624Y-78495D01*
X77679Y-78472D01*
X77722Y-78430D01*
X77744Y-78374D01*
X77745Y-78315D01*
X77745Y-79200D01*
X76695Y-79200D01*
X76695Y-75265D01*
X76695Y-74125D01*
X76695Y-73874D01*
X76695Y-72675D01*
X76672Y-72620D01*
X76630Y-72577D01*
X76574Y-72555D01*
X76515Y-72554D01*
X76445Y-72554D01*
X76445Y-72015D01*
X76445Y-71425D01*
X76445Y-71425D01*
X76445Y-67758D01*
X76445Y-67741D01*
X76411Y-67570D01*
X76314Y-67426D01*
X76203Y-67352D01*
X76203Y-63500D01*
X76203Y-62500D01*
X76203Y-61500D01*
X76169Y-61329D01*
X76073Y-61185D01*
X75929Y-61088D01*
X75758Y-61055D01*
X75741Y-61055D01*
X75570Y-61088D01*
X75426Y-61185D01*
X75330Y-61329D01*
X75296Y-61500D01*
X75330Y-61670D01*
X75426Y-61814D01*
X75570Y-61911D01*
X75741Y-61945D01*
X75758Y-61945D01*
X75929Y-61911D01*
X76073Y-61814D01*
X76169Y-61670D01*
X76203Y-61500D01*
X76203Y-62500D01*
X76169Y-62329D01*
X76073Y-62185D01*
X75929Y-62088D01*
X75758Y-62055D01*
X75741Y-62055D01*
X75570Y-62088D01*
X75426Y-62185D01*
X75330Y-62329D01*
X75296Y-62500D01*
X75330Y-62670D01*
X75426Y-62814D01*
X75570Y-62911D01*
X75741Y-62945D01*
X75758Y-62945D01*
X75929Y-62911D01*
X76073Y-62814D01*
X76169Y-62670D01*
X76203Y-62500D01*
X76203Y-63500D01*
X76169Y-63329D01*
X76073Y-63185D01*
X75929Y-63088D01*
X75758Y-63055D01*
X75741Y-63055D01*
X75570Y-63088D01*
X75426Y-63185D01*
X75330Y-63329D01*
X75296Y-63500D01*
X75330Y-63670D01*
X75426Y-63814D01*
X75570Y-63911D01*
X75741Y-63945D01*
X75758Y-63945D01*
X75929Y-63911D01*
X76073Y-63814D01*
X76169Y-63670D01*
X76203Y-63500D01*
X76203Y-67352D01*
X76170Y-67330D01*
X76000Y-67296D01*
X75829Y-67330D01*
X75685Y-67426D01*
X75588Y-67570D01*
X75555Y-67741D01*
X75555Y-67758D01*
X75588Y-67929D01*
X75685Y-68073D01*
X75829Y-68169D01*
X76000Y-68203D01*
X76170Y-68169D01*
X76314Y-68073D01*
X76411Y-67929D01*
X76445Y-67758D01*
X76445Y-71425D01*
X76422Y-71370D01*
X76380Y-71327D01*
X76324Y-71305D01*
X76265Y-71304D01*
X75675Y-71304D01*
X75620Y-71327D01*
X75577Y-71369D01*
X75555Y-71425D01*
X75554Y-71484D01*
X75554Y-72074D01*
X75577Y-72129D01*
X75619Y-72172D01*
X75675Y-72194D01*
X75734Y-72195D01*
X76324Y-72195D01*
X76379Y-72172D01*
X76422Y-72130D01*
X76444Y-72074D01*
X76445Y-72015D01*
X76445Y-72554D01*
X76337Y-72555D01*
X76300Y-72592D01*
X76300Y-73225D01*
X76657Y-73225D01*
X76695Y-73187D01*
X76695Y-72675D01*
X76695Y-73874D01*
X76695Y-73362D01*
X76657Y-73325D01*
X76300Y-73325D01*
X76300Y-73957D01*
X76337Y-73995D01*
X76515Y-73995D01*
X76574Y-73994D01*
X76630Y-73972D01*
X76672Y-73929D01*
X76695Y-73874D01*
X76695Y-74125D01*
X76672Y-74070D01*
X76630Y-74027D01*
X76574Y-74005D01*
X76515Y-74004D01*
X76200Y-74004D01*
X76200Y-73957D01*
X76200Y-73325D01*
X76200Y-73225D01*
X76200Y-72592D01*
X76162Y-72555D01*
X75984Y-72554D01*
X75925Y-72555D01*
X75869Y-72577D01*
X75827Y-72620D01*
X75804Y-72675D01*
X75805Y-73187D01*
X75842Y-73225D01*
X76200Y-73225D01*
X76200Y-73325D01*
X75842Y-73325D01*
X75805Y-73362D01*
X75804Y-73874D01*
X75827Y-73929D01*
X75869Y-73972D01*
X75925Y-73994D01*
X75984Y-73995D01*
X76162Y-73995D01*
X76200Y-73957D01*
X76200Y-74004D01*
X75925Y-74004D01*
X75870Y-74027D01*
X75827Y-74069D01*
X75805Y-74125D01*
X75804Y-74184D01*
X75804Y-75324D01*
X75827Y-75379D01*
X75869Y-75422D01*
X75925Y-75444D01*
X75984Y-75445D01*
X76574Y-75445D01*
X76629Y-75422D01*
X76672Y-75380D01*
X76694Y-75324D01*
X76695Y-75265D01*
X76695Y-79200D01*
X75245Y-79200D01*
X75245Y-65151D01*
X75169Y-64969D01*
X75030Y-64830D01*
X74848Y-64755D01*
X74651Y-64754D01*
X74469Y-64830D01*
X74330Y-64969D01*
X74255Y-65151D01*
X74254Y-65348D01*
X74330Y-65530D01*
X74469Y-65669D01*
X74651Y-65744D01*
X74848Y-65745D01*
X75030Y-65669D01*
X75169Y-65530D01*
X75244Y-65348D01*
X75245Y-65151D01*
X75245Y-79200D01*
X75237Y-79200D01*
X75237Y-78147D01*
X75224Y-77970D01*
X75203Y-77919D01*
X75203Y-66750D01*
X75169Y-66579D01*
X75073Y-66435D01*
X74929Y-66338D01*
X74758Y-66305D01*
X74741Y-66305D01*
X74570Y-66338D01*
X74426Y-66435D01*
X74330Y-66579D01*
X74296Y-66750D01*
X74330Y-66920D01*
X74426Y-67064D01*
X74570Y-67161D01*
X74741Y-67195D01*
X74758Y-67195D01*
X74929Y-67161D01*
X75073Y-67064D01*
X75169Y-66920D01*
X75203Y-66750D01*
X75203Y-77919D01*
X75195Y-77898D01*
X75195Y-71758D01*
X75195Y-71741D01*
X75195Y-67758D01*
X75195Y-67741D01*
X75161Y-67570D01*
X75064Y-67426D01*
X74920Y-67330D01*
X74750Y-67296D01*
X74579Y-67330D01*
X74435Y-67426D01*
X74338Y-67570D01*
X74305Y-67741D01*
X74305Y-67758D01*
X74338Y-67929D01*
X74435Y-68073D01*
X74579Y-68169D01*
X74750Y-68203D01*
X74920Y-68169D01*
X75064Y-68073D01*
X75161Y-67929D01*
X75195Y-67758D01*
X75195Y-71741D01*
X75161Y-71570D01*
X75064Y-71426D01*
X74920Y-71330D01*
X74750Y-71296D01*
X74579Y-71330D01*
X74435Y-71426D01*
X74338Y-71570D01*
X74305Y-71741D01*
X74305Y-71758D01*
X74338Y-71929D01*
X74435Y-72073D01*
X74579Y-72169D01*
X74750Y-72203D01*
X74920Y-72169D01*
X75064Y-72073D01*
X75161Y-71929D01*
X75195Y-71758D01*
X75195Y-77898D01*
X75181Y-77865D01*
X75114Y-77833D01*
X75044Y-77904D01*
X75044Y-77763D01*
X75012Y-77696D01*
X74844Y-77640D01*
X74667Y-77652D01*
X74562Y-77696D01*
X74530Y-77763D01*
X74787Y-78019D01*
X75044Y-77763D01*
X75044Y-77904D01*
X74858Y-78090D01*
X75114Y-78347D01*
X75181Y-78315D01*
X75237Y-78147D01*
X75237Y-79200D01*
X75044Y-79200D01*
X75044Y-78418D01*
X74787Y-78161D01*
X74716Y-78231D01*
X74716Y-78090D01*
X74459Y-77833D01*
X74445Y-77840D01*
X74445Y-76722D01*
X74377Y-76559D01*
X74252Y-76433D01*
X74195Y-76410D01*
X74195Y-71758D01*
X74195Y-71741D01*
X74178Y-71660D01*
X74178Y-67868D01*
X74178Y-67631D01*
X74100Y-67476D01*
X73969Y-67362D01*
X73868Y-67321D01*
X73800Y-67345D01*
X73800Y-67700D01*
X74154Y-67700D01*
X74178Y-67631D01*
X74178Y-67868D01*
X74154Y-67800D01*
X73800Y-67800D01*
X73800Y-68154D01*
X73868Y-68178D01*
X73969Y-68137D01*
X74100Y-68023D01*
X74178Y-67868D01*
X74178Y-71660D01*
X74161Y-71570D01*
X74064Y-71426D01*
X73920Y-71330D01*
X73750Y-71296D01*
X73700Y-71306D01*
X73700Y-68154D01*
X73700Y-67800D01*
X73700Y-67700D01*
X73700Y-67345D01*
X73631Y-67321D01*
X73530Y-67362D01*
X73399Y-67476D01*
X73321Y-67631D01*
X73345Y-67700D01*
X73700Y-67700D01*
X73700Y-67800D01*
X73345Y-67800D01*
X73321Y-67868D01*
X73399Y-68023D01*
X73530Y-68137D01*
X73631Y-68178D01*
X73700Y-68154D01*
X73700Y-71306D01*
X73579Y-71330D01*
X73435Y-71426D01*
X73338Y-71570D01*
X73305Y-71741D01*
X73305Y-71758D01*
X73338Y-71929D01*
X73435Y-72073D01*
X73579Y-72169D01*
X73750Y-72203D01*
X73920Y-72169D01*
X74064Y-72073D01*
X74161Y-71929D01*
X74195Y-71758D01*
X74195Y-76410D01*
X74088Y-76366D01*
X73911Y-76365D01*
X73748Y-76433D01*
X73622Y-76558D01*
X73584Y-76651D01*
X73464Y-76532D01*
X73301Y-76464D01*
X73245Y-76464D01*
X73245Y-74901D01*
X73245Y-74901D01*
X73245Y-73565D01*
X73245Y-72875D01*
X73222Y-72820D01*
X73206Y-72804D01*
X73206Y-71750D01*
X73206Y-70750D01*
X73206Y-69750D01*
X73206Y-68750D01*
X73195Y-68691D01*
X73195Y-67015D01*
X73195Y-65875D01*
X73195Y-65624D01*
X73195Y-64425D01*
X73172Y-64370D01*
X73130Y-64327D01*
X73074Y-64305D01*
X73015Y-64304D01*
X72837Y-64305D01*
X72800Y-64342D01*
X72800Y-64975D01*
X73157Y-64975D01*
X73195Y-64937D01*
X73195Y-64425D01*
X73195Y-65624D01*
X73195Y-65112D01*
X73157Y-65075D01*
X72800Y-65075D01*
X72800Y-65707D01*
X72837Y-65745D01*
X73015Y-65745D01*
X73074Y-65744D01*
X73130Y-65722D01*
X73172Y-65679D01*
X73195Y-65624D01*
X73195Y-65875D01*
X73172Y-65820D01*
X73130Y-65777D01*
X73074Y-65755D01*
X73015Y-65754D01*
X72700Y-65754D01*
X72700Y-65707D01*
X72700Y-65075D01*
X72700Y-64975D01*
X72700Y-64342D01*
X72662Y-64305D01*
X72484Y-64304D01*
X72425Y-64305D01*
X72369Y-64327D01*
X72327Y-64370D01*
X72304Y-64425D01*
X72305Y-64937D01*
X72342Y-64975D01*
X72700Y-64975D01*
X72700Y-65075D01*
X72342Y-65075D01*
X72305Y-65112D01*
X72304Y-65624D01*
X72327Y-65679D01*
X72369Y-65722D01*
X72425Y-65744D01*
X72484Y-65745D01*
X72662Y-65745D01*
X72700Y-65707D01*
X72700Y-65754D01*
X72425Y-65754D01*
X72370Y-65777D01*
X72327Y-65819D01*
X72305Y-65875D01*
X72304Y-65934D01*
X72304Y-67074D01*
X72327Y-67129D01*
X72369Y-67172D01*
X72425Y-67194D01*
X72484Y-67195D01*
X73074Y-67195D01*
X73129Y-67172D01*
X73172Y-67130D01*
X73194Y-67074D01*
X73195Y-67015D01*
X73195Y-68691D01*
X73172Y-68579D01*
X73076Y-68435D01*
X72931Y-68338D01*
X72761Y-68305D01*
X72443Y-68305D01*
X72273Y-68338D01*
X72203Y-68385D01*
X72203Y-63500D01*
X72203Y-62500D01*
X72203Y-61500D01*
X72169Y-61329D01*
X72073Y-61185D01*
X71929Y-61088D01*
X71758Y-61055D01*
X71741Y-61055D01*
X71570Y-61088D01*
X71426Y-61185D01*
X71330Y-61329D01*
X71296Y-61500D01*
X71330Y-61670D01*
X71426Y-61814D01*
X71570Y-61911D01*
X71741Y-61945D01*
X71758Y-61945D01*
X71929Y-61911D01*
X72073Y-61814D01*
X72169Y-61670D01*
X72203Y-61500D01*
X72203Y-62500D01*
X72169Y-62329D01*
X72073Y-62185D01*
X71929Y-62088D01*
X71758Y-62055D01*
X71741Y-62055D01*
X71570Y-62088D01*
X71426Y-62185D01*
X71330Y-62329D01*
X71296Y-62500D01*
X71330Y-62670D01*
X71426Y-62814D01*
X71570Y-62911D01*
X71741Y-62945D01*
X71758Y-62945D01*
X71929Y-62911D01*
X72073Y-62814D01*
X72169Y-62670D01*
X72203Y-62500D01*
X72203Y-63500D01*
X72169Y-63329D01*
X72073Y-63185D01*
X71929Y-63088D01*
X71758Y-63055D01*
X71741Y-63055D01*
X71570Y-63088D01*
X71426Y-63185D01*
X71330Y-63329D01*
X71296Y-63500D01*
X71330Y-63670D01*
X71426Y-63814D01*
X71570Y-63911D01*
X71741Y-63945D01*
X71758Y-63945D01*
X71929Y-63911D01*
X72073Y-63814D01*
X72169Y-63670D01*
X72203Y-63500D01*
X72203Y-68385D01*
X72128Y-68435D01*
X72032Y-68579D01*
X71998Y-68750D01*
X72032Y-68920D01*
X72128Y-69064D01*
X72273Y-69161D01*
X72443Y-69195D01*
X72761Y-69195D01*
X72931Y-69161D01*
X73076Y-69064D01*
X73172Y-68920D01*
X73206Y-68750D01*
X73206Y-69750D01*
X73172Y-69579D01*
X73076Y-69435D01*
X72931Y-69338D01*
X72761Y-69305D01*
X72443Y-69305D01*
X72273Y-69338D01*
X72128Y-69435D01*
X72032Y-69579D01*
X71998Y-69750D01*
X72032Y-69920D01*
X72128Y-70064D01*
X72273Y-70161D01*
X72443Y-70195D01*
X72761Y-70195D01*
X72931Y-70161D01*
X73076Y-70064D01*
X73172Y-69920D01*
X73206Y-69750D01*
X73206Y-70750D01*
X73172Y-70579D01*
X73076Y-70435D01*
X72931Y-70338D01*
X72761Y-70305D01*
X72443Y-70305D01*
X72273Y-70338D01*
X72128Y-70435D01*
X72032Y-70579D01*
X71998Y-70750D01*
X72032Y-70920D01*
X72128Y-71064D01*
X72273Y-71161D01*
X72443Y-71195D01*
X72761Y-71195D01*
X72931Y-71161D01*
X73076Y-71064D01*
X73172Y-70920D01*
X73206Y-70750D01*
X73206Y-71750D01*
X73172Y-71579D01*
X73076Y-71435D01*
X72931Y-71338D01*
X72761Y-71305D01*
X72443Y-71305D01*
X72273Y-71338D01*
X72128Y-71435D01*
X72032Y-71579D01*
X71998Y-71750D01*
X72032Y-71920D01*
X72128Y-72064D01*
X72273Y-72161D01*
X72443Y-72195D01*
X72761Y-72195D01*
X72931Y-72161D01*
X73076Y-72064D01*
X73172Y-71920D01*
X73206Y-71750D01*
X73206Y-72804D01*
X73180Y-72777D01*
X73124Y-72755D01*
X73065Y-72754D01*
X72375Y-72754D01*
X72320Y-72777D01*
X72277Y-72819D01*
X72255Y-72875D01*
X72254Y-72934D01*
X72254Y-73624D01*
X72277Y-73679D01*
X72319Y-73722D01*
X72375Y-73744D01*
X72434Y-73745D01*
X73124Y-73745D01*
X73179Y-73722D01*
X73222Y-73680D01*
X73244Y-73624D01*
X73245Y-73565D01*
X73245Y-74901D01*
X73169Y-74719D01*
X73030Y-74580D01*
X72848Y-74505D01*
X72651Y-74504D01*
X72469Y-74580D01*
X72330Y-74719D01*
X72255Y-74901D01*
X72254Y-75098D01*
X72330Y-75280D01*
X72469Y-75419D01*
X72651Y-75494D01*
X72848Y-75495D01*
X73030Y-75419D01*
X73169Y-75280D01*
X73244Y-75098D01*
X73245Y-74901D01*
X73245Y-76464D01*
X73124Y-76464D01*
X72960Y-76531D01*
X72835Y-76657D01*
X72767Y-76820D01*
X72767Y-76997D01*
X72835Y-77161D01*
X72960Y-77286D01*
X73123Y-77354D01*
X73300Y-77354D01*
X73464Y-77286D01*
X73589Y-77161D01*
X73628Y-77068D01*
X73747Y-77188D01*
X73911Y-77255D01*
X74088Y-77256D01*
X74251Y-77188D01*
X74377Y-77063D01*
X74444Y-76899D01*
X74445Y-76722D01*
X74445Y-77840D01*
X74393Y-77865D01*
X74365Y-77950D01*
X74327Y-77932D01*
X74256Y-78002D01*
X74256Y-77861D01*
X74224Y-77794D01*
X74056Y-77738D01*
X73880Y-77751D01*
X73775Y-77794D01*
X73743Y-77861D01*
X74000Y-78118D01*
X74256Y-77861D01*
X74256Y-78002D01*
X74070Y-78188D01*
X74327Y-78445D01*
X74394Y-78413D01*
X74422Y-78329D01*
X74459Y-78347D01*
X74716Y-78090D01*
X74716Y-78231D01*
X74530Y-78418D01*
X74562Y-78484D01*
X74730Y-78540D01*
X74907Y-78528D01*
X75012Y-78484D01*
X75044Y-78418D01*
X75044Y-79200D01*
X74256Y-79200D01*
X74256Y-78516D01*
X74000Y-78259D01*
X73929Y-78330D01*
X73929Y-78188D01*
X73672Y-77932D01*
X73605Y-77964D01*
X73549Y-78132D01*
X73562Y-78308D01*
X73605Y-78413D01*
X73672Y-78445D01*
X73929Y-78188D01*
X73929Y-78330D01*
X73743Y-78516D01*
X73775Y-78583D01*
X73943Y-78639D01*
X74119Y-78626D01*
X74224Y-78583D01*
X74256Y-78516D01*
X74256Y-79200D01*
X70745Y-79200D01*
X70745Y-61815D01*
X70745Y-61125D01*
X70722Y-61070D01*
X70680Y-61027D01*
X70624Y-61005D01*
X70565Y-61004D01*
X69875Y-61004D01*
X69820Y-61027D01*
X69777Y-61069D01*
X69755Y-61125D01*
X69754Y-61184D01*
X69754Y-61874D01*
X69777Y-61929D01*
X69819Y-61972D01*
X69875Y-61994D01*
X69934Y-61995D01*
X70624Y-61995D01*
X70679Y-61972D01*
X70722Y-61930D01*
X70744Y-61874D01*
X70745Y-61815D01*
X70745Y-79200D01*
X70695Y-79200D01*
X70695Y-78125D01*
X70695Y-77815D01*
X70695Y-76675D01*
X70672Y-76620D01*
X70630Y-76577D01*
X70574Y-76555D01*
X70515Y-76554D01*
X70501Y-76554D01*
X70501Y-71750D01*
X70501Y-70750D01*
X70501Y-69750D01*
X70490Y-69691D01*
X70490Y-69015D01*
X70490Y-68425D01*
X70467Y-68370D01*
X70425Y-68327D01*
X70369Y-68305D01*
X70310Y-68304D01*
X70232Y-68304D01*
X70232Y-66252D01*
X70164Y-66088D01*
X70039Y-65963D01*
X69876Y-65895D01*
X69750Y-65895D01*
X69750Y-61568D01*
X69738Y-61372D01*
X69685Y-61245D01*
X69613Y-61206D01*
X69543Y-61277D01*
X69543Y-61136D01*
X69504Y-61064D01*
X69318Y-60999D01*
X69122Y-61011D01*
X68995Y-61064D01*
X68956Y-61136D01*
X69250Y-61429D01*
X69543Y-61136D01*
X69543Y-61277D01*
X69320Y-61500D01*
X69613Y-61793D01*
X69685Y-61754D01*
X69750Y-61568D01*
X69750Y-65895D01*
X69699Y-65895D01*
X69543Y-65960D01*
X69543Y-61863D01*
X69250Y-61570D01*
X69179Y-61641D01*
X69179Y-61500D01*
X68886Y-61206D01*
X68814Y-61245D01*
X68749Y-61431D01*
X68761Y-61627D01*
X68814Y-61754D01*
X68886Y-61793D01*
X69179Y-61500D01*
X69179Y-61641D01*
X68956Y-61863D01*
X68995Y-61935D01*
X69181Y-62000D01*
X69377Y-61988D01*
X69504Y-61935D01*
X69543Y-61863D01*
X69543Y-65960D01*
X69535Y-65963D01*
X69450Y-66048D01*
X69450Y-65117D01*
X69437Y-64941D01*
X69394Y-64836D01*
X69327Y-64804D01*
X69256Y-64874D01*
X69256Y-64733D01*
X69224Y-64666D01*
X69056Y-64610D01*
X68880Y-64623D01*
X68775Y-64666D01*
X68750Y-64719D01*
X68750Y-61568D01*
X68738Y-61372D01*
X68685Y-61245D01*
X68613Y-61206D01*
X68543Y-61277D01*
X68543Y-61136D01*
X68504Y-61064D01*
X68318Y-60999D01*
X68122Y-61011D01*
X67995Y-61064D01*
X67956Y-61136D01*
X68250Y-61429D01*
X68543Y-61136D01*
X68543Y-61277D01*
X68320Y-61500D01*
X68613Y-61793D01*
X68685Y-61754D01*
X68750Y-61568D01*
X68750Y-64719D01*
X68743Y-64733D01*
X69000Y-64990D01*
X69256Y-64733D01*
X69256Y-64874D01*
X69070Y-65061D01*
X69327Y-65317D01*
X69394Y-65285D01*
X69450Y-65117D01*
X69450Y-66048D01*
X69410Y-66088D01*
X69371Y-66181D01*
X69256Y-66066D01*
X69256Y-65388D01*
X69000Y-65131D01*
X68929Y-65202D01*
X68929Y-65061D01*
X68672Y-64804D01*
X68605Y-64836D01*
X68577Y-64920D01*
X68543Y-64904D01*
X68543Y-61863D01*
X68250Y-61570D01*
X68179Y-61641D01*
X68179Y-61500D01*
X67886Y-61206D01*
X67814Y-61245D01*
X67749Y-61431D01*
X67761Y-61627D01*
X67814Y-61754D01*
X67886Y-61793D01*
X68179Y-61500D01*
X68179Y-61641D01*
X67956Y-61863D01*
X67995Y-61935D01*
X68181Y-62000D01*
X68377Y-61988D01*
X68504Y-61935D01*
X68543Y-61863D01*
X68543Y-64904D01*
X68540Y-64902D01*
X68469Y-64973D01*
X68469Y-64831D01*
X68437Y-64765D01*
X68269Y-64709D01*
X68092Y-64721D01*
X67987Y-64765D01*
X67955Y-64831D01*
X68212Y-65088D01*
X68469Y-64831D01*
X68469Y-64973D01*
X68283Y-65159D01*
X68540Y-65416D01*
X68606Y-65384D01*
X68634Y-65299D01*
X68672Y-65317D01*
X68929Y-65061D01*
X68929Y-65202D01*
X68743Y-65388D01*
X68775Y-65455D01*
X68943Y-65511D01*
X69119Y-65498D01*
X69224Y-65455D01*
X69256Y-65388D01*
X69256Y-66066D01*
X69252Y-66061D01*
X69088Y-65994D01*
X68911Y-65993D01*
X68748Y-66061D01*
X68622Y-66186D01*
X68555Y-66350D01*
X68554Y-66527D01*
X68622Y-66690D01*
X68747Y-66816D01*
X68911Y-66883D01*
X69088Y-66884D01*
X69251Y-66816D01*
X69377Y-66691D01*
X69415Y-66598D01*
X69535Y-66717D01*
X69698Y-66785D01*
X69875Y-66785D01*
X70039Y-66718D01*
X70164Y-66592D01*
X70232Y-66429D01*
X70232Y-66252D01*
X70232Y-68304D01*
X69425Y-68304D01*
X69370Y-68327D01*
X69327Y-68369D01*
X69305Y-68425D01*
X69304Y-68484D01*
X69304Y-69074D01*
X69327Y-69129D01*
X69369Y-69172D01*
X69425Y-69194D01*
X69484Y-69195D01*
X70369Y-69195D01*
X70424Y-69172D01*
X70467Y-69130D01*
X70489Y-69074D01*
X70490Y-69015D01*
X70490Y-69691D01*
X70467Y-69579D01*
X70371Y-69435D01*
X70226Y-69338D01*
X70056Y-69305D01*
X69738Y-69305D01*
X69568Y-69338D01*
X69423Y-69435D01*
X69327Y-69579D01*
X69293Y-69750D01*
X69327Y-69920D01*
X69423Y-70064D01*
X69568Y-70161D01*
X69738Y-70195D01*
X70056Y-70195D01*
X70226Y-70161D01*
X70371Y-70064D01*
X70467Y-69920D01*
X70501Y-69750D01*
X70501Y-70750D01*
X70467Y-70579D01*
X70371Y-70435D01*
X70226Y-70338D01*
X70056Y-70305D01*
X69738Y-70305D01*
X69568Y-70338D01*
X69423Y-70435D01*
X69327Y-70579D01*
X69293Y-70750D01*
X69327Y-70920D01*
X69423Y-71064D01*
X69568Y-71161D01*
X69738Y-71195D01*
X70056Y-71195D01*
X70226Y-71161D01*
X70371Y-71064D01*
X70467Y-70920D01*
X70501Y-70750D01*
X70501Y-71750D01*
X70467Y-71579D01*
X70371Y-71435D01*
X70226Y-71338D01*
X70056Y-71305D01*
X69738Y-71305D01*
X69568Y-71338D01*
X69423Y-71435D01*
X69327Y-71579D01*
X69293Y-71750D01*
X69327Y-71920D01*
X69423Y-72064D01*
X69568Y-72161D01*
X69738Y-72195D01*
X70056Y-72195D01*
X70226Y-72161D01*
X70371Y-72064D01*
X70467Y-71920D01*
X70501Y-71750D01*
X70501Y-76554D01*
X69925Y-76554D01*
X69870Y-76577D01*
X69827Y-76619D01*
X69805Y-76675D01*
X69804Y-76734D01*
X69804Y-77874D01*
X69827Y-77929D01*
X69869Y-77972D01*
X69925Y-77994D01*
X69984Y-77995D01*
X70574Y-77995D01*
X70629Y-77972D01*
X70672Y-77930D01*
X70694Y-77874D01*
X70695Y-77815D01*
X70695Y-78125D01*
X70672Y-78070D01*
X70630Y-78027D01*
X70574Y-78005D01*
X70515Y-78004D01*
X70337Y-78005D01*
X70300Y-78042D01*
X70300Y-78675D01*
X70657Y-78675D01*
X70695Y-78637D01*
X70695Y-78125D01*
X70695Y-79200D01*
X70695Y-79200D01*
X70695Y-78812D01*
X70657Y-78775D01*
X70300Y-78775D01*
X70300Y-78782D01*
X70200Y-78782D01*
X70200Y-78775D01*
X70200Y-78675D01*
X70200Y-78042D01*
X70162Y-78005D01*
X69984Y-78004D01*
X69925Y-78005D01*
X69869Y-78027D01*
X69827Y-78070D01*
X69804Y-78125D01*
X69805Y-78637D01*
X69842Y-78675D01*
X70200Y-78675D01*
X70200Y-78775D01*
X69842Y-78775D01*
X69805Y-78812D01*
X69804Y-79200D01*
X69254Y-79200D01*
X69254Y-73250D01*
X69217Y-73060D01*
X69195Y-73027D01*
X69195Y-72515D01*
X69195Y-71375D01*
X69195Y-71065D01*
X69195Y-69925D01*
X69172Y-69870D01*
X69130Y-69827D01*
X69074Y-69805D01*
X69015Y-69804D01*
X68469Y-69804D01*
X68469Y-65486D01*
X68212Y-65230D01*
X68141Y-65300D01*
X68141Y-65159D01*
X67885Y-64902D01*
X67818Y-64934D01*
X67762Y-65102D01*
X67775Y-65279D01*
X67818Y-65384D01*
X67885Y-65416D01*
X68141Y-65159D01*
X68141Y-65300D01*
X67955Y-65486D01*
X67987Y-65553D01*
X68155Y-65609D01*
X68332Y-65597D01*
X68437Y-65553D01*
X68469Y-65486D01*
X68469Y-69804D01*
X68425Y-69804D01*
X68370Y-69827D01*
X68327Y-69869D01*
X68305Y-69925D01*
X68304Y-69984D01*
X68304Y-71124D01*
X68327Y-71179D01*
X68369Y-71222D01*
X68425Y-71244D01*
X68484Y-71245D01*
X69074Y-71245D01*
X69129Y-71222D01*
X69172Y-71180D01*
X69194Y-71124D01*
X69195Y-71065D01*
X69195Y-71375D01*
X69172Y-71320D01*
X69130Y-71277D01*
X69074Y-71255D01*
X69015Y-71254D01*
X68425Y-71254D01*
X68370Y-71277D01*
X68327Y-71319D01*
X68305Y-71375D01*
X68304Y-71434D01*
X68304Y-72574D01*
X68327Y-72629D01*
X68369Y-72672D01*
X68425Y-72694D01*
X68484Y-72695D01*
X69074Y-72695D01*
X69129Y-72672D01*
X69172Y-72630D01*
X69194Y-72574D01*
X69195Y-72515D01*
X69195Y-73027D01*
X69109Y-72899D01*
X68949Y-72792D01*
X68759Y-72755D01*
X68740Y-72755D01*
X68550Y-72792D01*
X68390Y-72899D01*
X68282Y-73060D01*
X68245Y-73250D01*
X68282Y-73439D01*
X68390Y-73600D01*
X68550Y-73707D01*
X68740Y-73745D01*
X68759Y-73745D01*
X68949Y-73707D01*
X69109Y-73600D01*
X69217Y-73439D01*
X69254Y-73250D01*
X69254Y-79200D01*
X69245Y-79200D01*
X69245Y-74901D01*
X69169Y-74719D01*
X69030Y-74580D01*
X68848Y-74505D01*
X68651Y-74504D01*
X68469Y-74580D01*
X68330Y-74719D01*
X68255Y-74901D01*
X68254Y-75098D01*
X68330Y-75280D01*
X68469Y-75419D01*
X68651Y-75494D01*
X68848Y-75495D01*
X69030Y-75419D01*
X69169Y-75280D01*
X69244Y-75098D01*
X69245Y-74901D01*
X69245Y-79200D01*
X68147Y-79200D01*
X68161Y-79179D01*
X68195Y-79008D01*
X68195Y-78991D01*
X68195Y-75008D01*
X68195Y-74991D01*
X68161Y-74820D01*
X68064Y-74676D01*
X67945Y-74596D01*
X67945Y-71758D01*
X67945Y-71741D01*
X67945Y-67758D01*
X67945Y-67741D01*
X67911Y-67570D01*
X67814Y-67426D01*
X67670Y-67330D01*
X67500Y-67296D01*
X67329Y-67330D01*
X67185Y-67426D01*
X67088Y-67570D01*
X67055Y-67741D01*
X67055Y-67758D01*
X67088Y-67929D01*
X67185Y-68073D01*
X67329Y-68169D01*
X67500Y-68203D01*
X67670Y-68169D01*
X67814Y-68073D01*
X67911Y-67929D01*
X67945Y-67758D01*
X67945Y-71741D01*
X67911Y-71570D01*
X67814Y-71426D01*
X67670Y-71330D01*
X67500Y-71296D01*
X67329Y-71330D01*
X67185Y-71426D01*
X67088Y-71570D01*
X67055Y-71741D01*
X67055Y-71758D01*
X67088Y-71929D01*
X67185Y-72073D01*
X67329Y-72169D01*
X67500Y-72203D01*
X67670Y-72169D01*
X67814Y-72073D01*
X67911Y-71929D01*
X67945Y-71758D01*
X67945Y-74596D01*
X67920Y-74580D01*
X67750Y-74546D01*
X67579Y-74580D01*
X67435Y-74676D01*
X67338Y-74820D01*
X67305Y-74991D01*
X67305Y-75008D01*
X67338Y-75179D01*
X67435Y-75323D01*
X67579Y-75419D01*
X67750Y-75453D01*
X67920Y-75419D01*
X68064Y-75323D01*
X68161Y-75179D01*
X68195Y-75008D01*
X68195Y-78991D01*
X68161Y-78820D01*
X68064Y-78676D01*
X67920Y-78580D01*
X67750Y-78546D01*
X67579Y-78580D01*
X67435Y-78676D01*
X67338Y-78820D01*
X67305Y-78991D01*
X67305Y-79008D01*
X67338Y-79179D01*
X67352Y-79200D01*
X66945Y-79200D01*
X66945Y-71758D01*
X66945Y-71741D01*
X66945Y-67758D01*
X66945Y-67741D01*
X66911Y-67570D01*
X66814Y-67426D01*
X66670Y-67330D01*
X66500Y-67296D01*
X66329Y-67330D01*
X66185Y-67426D01*
X66088Y-67570D01*
X66055Y-67741D01*
X66055Y-67758D01*
X66088Y-67929D01*
X66185Y-68073D01*
X66329Y-68169D01*
X66500Y-68203D01*
X66670Y-68169D01*
X66814Y-68073D01*
X66911Y-67929D01*
X66945Y-67758D01*
X66945Y-71741D01*
X66911Y-71570D01*
X66814Y-71426D01*
X66670Y-71330D01*
X66500Y-71296D01*
X66329Y-71330D01*
X66185Y-71426D01*
X66088Y-71570D01*
X66055Y-71741D01*
X66055Y-71758D01*
X66088Y-71929D01*
X66185Y-72073D01*
X66329Y-72169D01*
X66500Y-72203D01*
X66670Y-72169D01*
X66814Y-72073D01*
X66911Y-71929D01*
X66945Y-71758D01*
X66945Y-79200D01*
X66182Y-79200D01*
X66377Y-79004D01*
X66580Y-78515D01*
X66581Y-77986D01*
X66379Y-77496D01*
X66004Y-77122D01*
X65945Y-77097D01*
X65945Y-71758D01*
X65945Y-71741D01*
X65945Y-67758D01*
X65945Y-67741D01*
X65911Y-67570D01*
X65814Y-67426D01*
X65670Y-67330D01*
X65500Y-67296D01*
X65329Y-67330D01*
X65299Y-67350D01*
X65299Y-64330D01*
X65288Y-64114D01*
X65227Y-63965D01*
X65150Y-63920D01*
X65079Y-63991D01*
X65079Y-63849D01*
X65034Y-63772D01*
X64830Y-63700D01*
X64614Y-63711D01*
X64465Y-63772D01*
X64420Y-63849D01*
X64750Y-64179D01*
X65079Y-63849D01*
X65079Y-63991D01*
X64820Y-64250D01*
X65150Y-64579D01*
X65227Y-64534D01*
X65299Y-64330D01*
X65299Y-67350D01*
X65185Y-67426D01*
X65088Y-67570D01*
X65055Y-67741D01*
X65055Y-67758D01*
X65088Y-67929D01*
X65185Y-68073D01*
X65329Y-68169D01*
X65500Y-68203D01*
X65670Y-68169D01*
X65814Y-68073D01*
X65911Y-67929D01*
X65945Y-67758D01*
X65945Y-71741D01*
X65911Y-71570D01*
X65814Y-71426D01*
X65670Y-71330D01*
X65500Y-71296D01*
X65329Y-71330D01*
X65185Y-71426D01*
X65088Y-71570D01*
X65055Y-71741D01*
X65055Y-71758D01*
X65088Y-71929D01*
X65185Y-72073D01*
X65329Y-72169D01*
X65500Y-72203D01*
X65670Y-72169D01*
X65814Y-72073D01*
X65911Y-71929D01*
X65945Y-71758D01*
X65945Y-77097D01*
X65515Y-76919D01*
X65299Y-76918D01*
X65299Y-73330D01*
X65288Y-73114D01*
X65227Y-72965D01*
X65150Y-72920D01*
X65079Y-72991D01*
X65079Y-72849D01*
X65034Y-72772D01*
X64830Y-72700D01*
X64614Y-72711D01*
X64465Y-72772D01*
X64420Y-72849D01*
X64750Y-73179D01*
X65079Y-72849D01*
X65079Y-72991D01*
X64820Y-73250D01*
X65150Y-73579D01*
X65227Y-73534D01*
X65299Y-73330D01*
X65299Y-76918D01*
X64986Y-76918D01*
X64496Y-77120D01*
X64300Y-77317D01*
X64300Y-75784D01*
X64325Y-75794D01*
X64384Y-75795D01*
X65174Y-75795D01*
X65229Y-75772D01*
X65272Y-75730D01*
X65294Y-75674D01*
X65295Y-75615D01*
X65295Y-74825D01*
X65272Y-74770D01*
X65230Y-74727D01*
X65174Y-74705D01*
X65115Y-74704D01*
X65079Y-74704D01*
X65079Y-73650D01*
X64750Y-73320D01*
X64420Y-73650D01*
X64465Y-73727D01*
X64669Y-73799D01*
X64885Y-73788D01*
X65034Y-73727D01*
X65079Y-73650D01*
X65079Y-74704D01*
X64325Y-74704D01*
X64300Y-74715D01*
X64300Y-73550D01*
X64349Y-73579D01*
X64679Y-73250D01*
X64349Y-72920D01*
X64300Y-72949D01*
X64300Y-72149D01*
X64329Y-72169D01*
X64500Y-72203D01*
X64670Y-72169D01*
X64814Y-72073D01*
X64911Y-71929D01*
X64945Y-71758D01*
X64945Y-71741D01*
X64911Y-71570D01*
X64814Y-71426D01*
X64670Y-71330D01*
X64500Y-71296D01*
X64329Y-71330D01*
X64300Y-71350D01*
X64300Y-68149D01*
X64329Y-68169D01*
X64500Y-68203D01*
X64670Y-68169D01*
X64814Y-68073D01*
X64911Y-67929D01*
X64945Y-67758D01*
X64945Y-67741D01*
X64911Y-67570D01*
X64814Y-67426D01*
X64670Y-67330D01*
X64500Y-67296D01*
X64329Y-67330D01*
X64300Y-67350D01*
X64300Y-66784D01*
X64325Y-66794D01*
X64384Y-66795D01*
X65174Y-66795D01*
X65229Y-66772D01*
X65272Y-66730D01*
X65294Y-66674D01*
X65295Y-66615D01*
X65295Y-65825D01*
X65272Y-65770D01*
X65230Y-65727D01*
X65174Y-65705D01*
X65115Y-65704D01*
X65079Y-65704D01*
X65079Y-64650D01*
X64750Y-64320D01*
X64420Y-64650D01*
X64465Y-64727D01*
X64669Y-64799D01*
X64885Y-64788D01*
X65034Y-64727D01*
X65079Y-64650D01*
X65079Y-65704D01*
X64325Y-65704D01*
X64300Y-65715D01*
X64300Y-64550D01*
X64349Y-64579D01*
X64679Y-64250D01*
X64349Y-63920D01*
X64300Y-63949D01*
X64300Y-62182D01*
X64495Y-62377D01*
X64984Y-62580D01*
X65513Y-62581D01*
X66003Y-62379D01*
X66377Y-62004D01*
X66580Y-61515D01*
X66581Y-60986D01*
X66379Y-60496D01*
X66182Y-60300D01*
X71350Y-60300D01*
X71330Y-60329D01*
X71296Y-60500D01*
X71330Y-60670D01*
X71426Y-60814D01*
X71570Y-60911D01*
X71741Y-60945D01*
X71758Y-60945D01*
X71929Y-60911D01*
X72073Y-60814D01*
X72169Y-60670D01*
X72203Y-60500D01*
X72169Y-60329D01*
X72149Y-60300D01*
X75350Y-60300D01*
X75330Y-60329D01*
X75296Y-60500D01*
X75330Y-60670D01*
X75426Y-60814D01*
X75570Y-60911D01*
X75741Y-60945D01*
X75758Y-60945D01*
X75929Y-60911D01*
X76073Y-60814D01*
X76169Y-60670D01*
X76203Y-60500D01*
X76169Y-60329D01*
X76149Y-60300D01*
X76454Y-60300D01*
X76454Y-60924D01*
X76477Y-60979D01*
X76519Y-61022D01*
X76575Y-61044D01*
X76634Y-61045D01*
X77424Y-61045D01*
X77479Y-61022D01*
X77522Y-60980D01*
X77544Y-60924D01*
X77545Y-60865D01*
X77545Y-60300D01*
X78492Y-60300D01*
X78450Y-60419D01*
X78461Y-60635D01*
X78522Y-60784D01*
X78599Y-60829D01*
X78929Y-60500D01*
X78923Y-60494D01*
X78994Y-60423D01*
X79000Y-60429D01*
X79005Y-60423D01*
X79076Y-60494D01*
X79070Y-60500D01*
X79400Y-60829D01*
X79477Y-60784D01*
X79549Y-60580D01*
X79538Y-60364D01*
X79512Y-60300D01*
X81317Y-60300D01*
X81122Y-60495D01*
X80919Y-60984D01*
X80918Y-61513D01*
X81120Y-62003D01*
X81495Y-62377D01*
X81984Y-62580D01*
X82513Y-62581D01*
X83003Y-62379D01*
X83200Y-62182D01*
X83200Y-67362D01*
X83118Y-67321D01*
X83050Y-67345D01*
X83050Y-67700D01*
X83057Y-67700D01*
X83057Y-67800D01*
X83050Y-67800D01*
X83050Y-68154D01*
X83118Y-68178D01*
X83200Y-68137D01*
X83200Y-68362D01*
X83118Y-68321D01*
X83050Y-68345D01*
X83050Y-68700D01*
X83057Y-68700D01*
X83057Y-68800D01*
X83050Y-68800D01*
X83050Y-69154D01*
X83118Y-69178D01*
X83200Y-69137D01*
X83200Y-69362D01*
X83118Y-69321D01*
X83050Y-69345D01*
X83050Y-69700D01*
X83057Y-69700D01*
X83057Y-69800D01*
X83050Y-69800D01*
X83050Y-70154D01*
X83118Y-70178D01*
X83200Y-70137D01*
X83200Y-70362D01*
X83118Y-70321D01*
X83050Y-70345D01*
X83050Y-70700D01*
X83057Y-70700D01*
X83057Y-70800D01*
X83050Y-70800D01*
X83050Y-71154D01*
X83118Y-71178D01*
X83200Y-71137D01*
X83200Y-73449D01*
X83150Y-73420D01*
X83079Y-73491D01*
X83079Y-73349D01*
X83034Y-73272D01*
X82950Y-73242D01*
X82950Y-71154D01*
X82950Y-70800D01*
X82950Y-70700D01*
X82950Y-70345D01*
X82950Y-70154D01*
X82950Y-69800D01*
X82950Y-69700D01*
X82950Y-69345D01*
X82950Y-69154D01*
X82950Y-68800D01*
X82950Y-68700D01*
X82950Y-68345D01*
X82950Y-68154D01*
X82950Y-67800D01*
X82950Y-67700D01*
X82950Y-67345D01*
X82881Y-67321D01*
X82726Y-67399D01*
X82639Y-67500D01*
X82639Y-65306D01*
X82626Y-65130D01*
X82583Y-65025D01*
X82540Y-65004D01*
X82540Y-64519D01*
X82528Y-64342D01*
X82484Y-64237D01*
X82418Y-64205D01*
X82347Y-64276D01*
X82347Y-64135D01*
X82315Y-64068D01*
X82147Y-64012D01*
X81970Y-64025D01*
X81865Y-64068D01*
X81833Y-64135D01*
X82090Y-64391D01*
X82347Y-64135D01*
X82347Y-64276D01*
X82161Y-64462D01*
X82418Y-64719D01*
X82484Y-64687D01*
X82540Y-64519D01*
X82540Y-65004D01*
X82516Y-64993D01*
X82445Y-65063D01*
X82445Y-64922D01*
X82413Y-64855D01*
X82329Y-64827D01*
X82347Y-64790D01*
X82090Y-64533D01*
X82019Y-64604D01*
X82019Y-64462D01*
X81763Y-64205D01*
X81696Y-64237D01*
X81640Y-64405D01*
X81652Y-64582D01*
X81696Y-64687D01*
X81763Y-64719D01*
X82019Y-64462D01*
X82019Y-64604D01*
X81833Y-64790D01*
X81865Y-64856D01*
X81950Y-64884D01*
X81932Y-64922D01*
X82188Y-65179D01*
X82445Y-64922D01*
X82445Y-65063D01*
X82259Y-65250D01*
X82516Y-65506D01*
X82583Y-65474D01*
X82639Y-65306D01*
X82639Y-67500D01*
X82612Y-67530D01*
X82571Y-67631D01*
X82595Y-67700D01*
X82950Y-67700D01*
X82950Y-67800D01*
X82595Y-67800D01*
X82571Y-67868D01*
X82612Y-67969D01*
X82726Y-68100D01*
X82881Y-68178D01*
X82950Y-68154D01*
X82950Y-68345D01*
X82881Y-68321D01*
X82726Y-68399D01*
X82612Y-68530D01*
X82571Y-68631D01*
X82595Y-68700D01*
X82950Y-68700D01*
X82950Y-68800D01*
X82595Y-68800D01*
X82571Y-68868D01*
X82612Y-68969D01*
X82726Y-69100D01*
X82881Y-69178D01*
X82950Y-69154D01*
X82950Y-69345D01*
X82881Y-69321D01*
X82726Y-69399D01*
X82612Y-69530D01*
X82571Y-69631D01*
X82595Y-69700D01*
X82950Y-69700D01*
X82950Y-69800D01*
X82595Y-69800D01*
X82571Y-69868D01*
X82612Y-69969D01*
X82726Y-70100D01*
X82881Y-70178D01*
X82950Y-70154D01*
X82950Y-70345D01*
X82881Y-70321D01*
X82726Y-70399D01*
X82612Y-70530D01*
X82571Y-70631D01*
X82595Y-70700D01*
X82950Y-70700D01*
X82950Y-70800D01*
X82595Y-70800D01*
X82571Y-70868D01*
X82612Y-70969D01*
X82726Y-71100D01*
X82881Y-71178D01*
X82950Y-71154D01*
X82950Y-73242D01*
X82830Y-73200D01*
X82614Y-73211D01*
X82465Y-73272D01*
X82445Y-73306D01*
X82445Y-65577D01*
X82188Y-65320D01*
X82118Y-65391D01*
X82118Y-65250D01*
X81861Y-64993D01*
X81794Y-65025D01*
X81738Y-65193D01*
X81751Y-65369D01*
X81794Y-65474D01*
X81861Y-65506D01*
X82118Y-65250D01*
X82118Y-65391D01*
X81932Y-65577D01*
X81964Y-65644D01*
X82132Y-65700D01*
X82308Y-65687D01*
X82413Y-65644D01*
X82445Y-65577D01*
X82445Y-73306D01*
X82420Y-73349D01*
X82750Y-73679D01*
X83079Y-73349D01*
X83079Y-73491D01*
X82820Y-73750D01*
X83150Y-74079D01*
X83200Y-74050D01*
X83200Y-75215D01*
X83174Y-75205D01*
X83115Y-75204D01*
X83079Y-75204D01*
X83079Y-74150D01*
X82750Y-73820D01*
X82679Y-73891D01*
X82679Y-73750D01*
X82349Y-73420D01*
X82272Y-73465D01*
X82200Y-73669D01*
X82211Y-73885D01*
X82272Y-74034D01*
X82349Y-74079D01*
X82679Y-73750D01*
X82679Y-73891D01*
X82420Y-74150D01*
X82465Y-74227D01*
X82669Y-74299D01*
X82885Y-74288D01*
X83034Y-74227D01*
X83079Y-74150D01*
X83079Y-75204D01*
X82325Y-75204D01*
X82270Y-75227D01*
X82227Y-75269D01*
X82205Y-75325D01*
X82204Y-75384D01*
X82204Y-76174D01*
X82227Y-76229D01*
X82269Y-76272D01*
X82325Y-76294D01*
X82384Y-76295D01*
X83174Y-76295D01*
X83200Y-76284D01*
X83200Y-77317D01*
M02*
