G04 (created by PCBNEW (2013-07-07 BZR 4022)-stable) date 5/10/2015 2:14:54 AM*
%MOIN*%
G04 Gerber Fmt 3.4, Leading zero omitted, Abs format*
%FSLAX34Y34*%
G01*
G70*
G90*
G04 APERTURE LIST*
%ADD10C,0.00590551*%
%ADD11R,0.069X0.069*%
%ADD12C,0.069*%
%ADD13O,0.059X0.059*%
%ADD14R,0.059X0.059*%
%ADD15R,0.0885X0.059*%
%ADD16O,0.0885X0.059*%
%ADD17O,0.069X0.069*%
%ADD18C,0.23622*%
%ADD19R,0.059X0.114*%
%ADD20R,0.114X0.059*%
%ADD21C,0.059*%
%ADD22R,0.079X0.079*%
%ADD23C,0.079*%
G04 APERTURE END LIST*
G54D10*
G54D11*
X70250Y-61500D03*
G54D12*
X68250Y-61500D03*
X69250Y-61500D03*
G54D11*
X77250Y-78000D03*
G54D12*
X79250Y-78000D03*
X78250Y-78000D03*
G54D13*
X74750Y-66750D03*
X78750Y-66750D03*
X71750Y-61500D03*
X75750Y-61500D03*
X71750Y-62500D03*
X75750Y-62500D03*
X67750Y-79000D03*
X67750Y-75000D03*
X71750Y-63500D03*
X75750Y-63500D03*
X71750Y-60500D03*
X75750Y-60500D03*
X77000Y-71750D03*
X77000Y-67750D03*
X78000Y-67750D03*
X78000Y-71750D03*
X74750Y-67750D03*
X74750Y-71750D03*
X73750Y-67750D03*
X73750Y-71750D03*
X83000Y-67750D03*
X79000Y-67750D03*
X76000Y-67750D03*
G54D14*
X76000Y-71750D03*
G54D13*
X83000Y-68750D03*
X79000Y-68750D03*
X64500Y-67750D03*
X64500Y-71750D03*
X67500Y-67750D03*
X67500Y-71750D03*
X66500Y-67750D03*
X66500Y-71750D03*
X65500Y-67750D03*
X65500Y-71750D03*
X83000Y-69750D03*
X79000Y-69750D03*
X83000Y-70750D03*
X79000Y-70750D03*
G54D12*
X72750Y-75000D03*
X68750Y-75000D03*
X78750Y-65250D03*
X74750Y-65250D03*
G54D15*
X69897Y-68750D03*
G54D16*
X69897Y-69750D03*
X69897Y-70750D03*
X69897Y-71750D03*
X72602Y-71750D03*
X72602Y-70750D03*
X72602Y-68750D03*
X72602Y-69750D03*
G54D11*
X72750Y-73250D03*
G54D17*
X68750Y-73250D03*
G54D18*
X65250Y-61250D03*
X82250Y-61250D03*
X65250Y-78250D03*
X82250Y-78250D03*
G54D19*
X72750Y-66475D03*
X72750Y-65025D03*
X76250Y-73275D03*
X76250Y-74725D03*
X70250Y-78725D03*
X70250Y-77275D03*
G54D20*
X77275Y-62750D03*
X78725Y-62750D03*
G54D21*
X69787Y-66340D03*
X68212Y-65159D03*
X69000Y-66438D03*
X69000Y-65061D03*
X79212Y-73159D03*
X80787Y-74340D03*
X80000Y-73061D03*
X80000Y-74438D03*
X74787Y-78090D03*
X73212Y-76909D03*
X74000Y-78188D03*
X74000Y-76811D03*
X80909Y-66037D03*
X82090Y-64462D03*
X80811Y-65250D03*
X82188Y-65250D03*
G54D22*
X82750Y-75750D03*
G54D23*
X82750Y-73750D03*
G54D22*
X64750Y-75250D03*
G54D23*
X64750Y-73250D03*
G54D22*
X64750Y-66250D03*
G54D23*
X64750Y-64250D03*
G54D22*
X77000Y-60500D03*
G54D23*
X79000Y-60500D03*
G54D19*
X68750Y-70525D03*
X68750Y-71975D03*
M02*
