G04 (created by PCBNEW (2013-07-07 BZR 4022)-stable) date 5/10/2015 2:14:54 AM*
%MOIN*%
G04 Gerber Fmt 3.4, Leading zero omitted, Abs format*
%FSLAX34Y34*%
G01*
G70*
G90*
G04 APERTURE LIST*
%ADD10C,0.00590551*%
%ADD11C,0.008*%
%ADD12C,0.006*%
%ADD13C,0.0001*%
G04 APERTURE END LIST*
G54D10*
G54D11*
X79211Y-76761D02*
X79135Y-76761D01*
X79097Y-76780D01*
X79059Y-76819D01*
X79040Y-76895D01*
X79040Y-77028D01*
X79059Y-77104D01*
X79097Y-77142D01*
X79135Y-77161D01*
X79211Y-77161D01*
X79249Y-77142D01*
X79288Y-77104D01*
X79307Y-77028D01*
X79307Y-76895D01*
X79288Y-76819D01*
X79249Y-76780D01*
X79211Y-76761D01*
X78869Y-76761D02*
X78869Y-77085D01*
X78849Y-77123D01*
X78830Y-77142D01*
X78792Y-77161D01*
X78716Y-77161D01*
X78678Y-77142D01*
X78659Y-77123D01*
X78640Y-77085D01*
X78640Y-76761D01*
X78507Y-76761D02*
X78278Y-76761D01*
X78392Y-77161D02*
X78392Y-76761D01*
X78145Y-77161D02*
X78145Y-76761D01*
X77992Y-76761D01*
X77954Y-76780D01*
X77935Y-76800D01*
X77916Y-76838D01*
X77916Y-76895D01*
X77935Y-76933D01*
X77954Y-76952D01*
X77992Y-76971D01*
X78145Y-76971D01*
X77745Y-76761D02*
X77745Y-77085D01*
X77726Y-77123D01*
X77707Y-77142D01*
X77669Y-77161D01*
X77592Y-77161D01*
X77554Y-77142D01*
X77535Y-77123D01*
X77516Y-77085D01*
X77516Y-76761D01*
X77383Y-76761D02*
X77154Y-76761D01*
X77269Y-77161D02*
X77269Y-76761D01*
X70021Y-62661D02*
X70021Y-62261D01*
X69830Y-62661D02*
X69830Y-62261D01*
X69602Y-62661D01*
X69602Y-62261D01*
X69411Y-62661D02*
X69411Y-62261D01*
X69259Y-62261D01*
X69221Y-62280D01*
X69202Y-62300D01*
X69183Y-62338D01*
X69183Y-62395D01*
X69202Y-62433D01*
X69221Y-62452D01*
X69259Y-62471D01*
X69411Y-62471D01*
X69011Y-62261D02*
X69011Y-62585D01*
X68992Y-62623D01*
X68973Y-62642D01*
X68935Y-62661D01*
X68859Y-62661D01*
X68821Y-62642D01*
X68802Y-62623D01*
X68783Y-62585D01*
X68783Y-62261D01*
X68649Y-62261D02*
X68421Y-62261D01*
X68535Y-62661D02*
X68535Y-62261D01*
X77402Y-78759D02*
X77097Y-78759D01*
X78402Y-78759D02*
X78097Y-78759D01*
X78250Y-78911D02*
X78250Y-78607D01*
X79402Y-78759D02*
X79097Y-78759D01*
X79250Y-78911D02*
X79250Y-78607D01*
X68402Y-60759D02*
X68097Y-60759D01*
X69402Y-60759D02*
X69097Y-60759D01*
X70402Y-60759D02*
X70097Y-60759D01*
X70250Y-60911D02*
X70250Y-60607D01*
X70983Y-63661D02*
X70983Y-63261D01*
X70850Y-63547D01*
X70716Y-63261D01*
X70716Y-63661D01*
X70297Y-63623D02*
X70316Y-63642D01*
X70373Y-63661D01*
X70411Y-63661D01*
X70469Y-63642D01*
X70507Y-63604D01*
X70526Y-63566D01*
X70545Y-63490D01*
X70545Y-63433D01*
X70526Y-63357D01*
X70507Y-63319D01*
X70469Y-63280D01*
X70411Y-63261D01*
X70373Y-63261D01*
X70316Y-63280D01*
X70297Y-63300D01*
X70164Y-63261D02*
X69916Y-63261D01*
X70049Y-63414D01*
X69992Y-63414D01*
X69954Y-63433D01*
X69935Y-63452D01*
X69916Y-63490D01*
X69916Y-63585D01*
X69935Y-63623D01*
X69954Y-63642D01*
X69992Y-63661D01*
X70107Y-63661D01*
X70145Y-63642D01*
X70164Y-63623D01*
X69573Y-63395D02*
X69573Y-63661D01*
X69669Y-63242D02*
X69764Y-63528D01*
X69516Y-63528D01*
X69288Y-63261D02*
X69250Y-63261D01*
X69211Y-63280D01*
X69192Y-63300D01*
X69173Y-63338D01*
X69154Y-63414D01*
X69154Y-63509D01*
X69173Y-63585D01*
X69192Y-63623D01*
X69211Y-63642D01*
X69250Y-63661D01*
X69288Y-63661D01*
X69326Y-63642D01*
X69345Y-63623D01*
X69364Y-63585D01*
X69383Y-63509D01*
X69383Y-63414D01*
X69364Y-63338D01*
X69345Y-63300D01*
X69326Y-63280D01*
X69288Y-63261D01*
X68811Y-63261D02*
X68888Y-63261D01*
X68926Y-63280D01*
X68945Y-63300D01*
X68983Y-63357D01*
X69002Y-63433D01*
X69002Y-63585D01*
X68983Y-63623D01*
X68964Y-63642D01*
X68926Y-63661D01*
X68850Y-63661D01*
X68811Y-63642D01*
X68792Y-63623D01*
X68773Y-63585D01*
X68773Y-63490D01*
X68792Y-63452D01*
X68811Y-63433D01*
X68850Y-63414D01*
X68926Y-63414D01*
X68964Y-63433D01*
X68983Y-63452D01*
X69002Y-63490D01*
X68640Y-63261D02*
X68392Y-63261D01*
X68526Y-63414D01*
X68469Y-63414D01*
X68430Y-63433D01*
X68411Y-63452D01*
X68392Y-63490D01*
X68392Y-63585D01*
X68411Y-63623D01*
X68430Y-63642D01*
X68469Y-63661D01*
X68583Y-63661D01*
X68621Y-63642D01*
X68640Y-63623D01*
X67916Y-63661D02*
X67916Y-63261D01*
X67726Y-63395D02*
X67726Y-63661D01*
X67726Y-63433D02*
X67707Y-63414D01*
X67669Y-63395D01*
X67611Y-63395D01*
X67573Y-63414D01*
X67554Y-63452D01*
X67554Y-63661D01*
X67402Y-63395D02*
X67307Y-63661D01*
X67211Y-63395D01*
X66907Y-63642D02*
X66945Y-63661D01*
X67021Y-63661D01*
X67059Y-63642D01*
X67078Y-63604D01*
X67078Y-63452D01*
X67059Y-63414D01*
X67021Y-63395D01*
X66945Y-63395D01*
X66907Y-63414D01*
X66888Y-63452D01*
X66888Y-63490D01*
X67078Y-63528D01*
X66716Y-63661D02*
X66716Y-63395D01*
X66716Y-63471D02*
X66697Y-63433D01*
X66678Y-63414D01*
X66640Y-63395D01*
X66602Y-63395D01*
X66526Y-63395D02*
X66373Y-63395D01*
X66469Y-63261D02*
X66469Y-63604D01*
X66450Y-63642D01*
X66411Y-63661D01*
X66373Y-63661D01*
X66240Y-63661D02*
X66240Y-63395D01*
X66240Y-63261D02*
X66259Y-63280D01*
X66240Y-63300D01*
X66221Y-63280D01*
X66240Y-63261D01*
X66240Y-63300D01*
X66050Y-63395D02*
X66050Y-63661D01*
X66050Y-63433D02*
X66030Y-63414D01*
X65992Y-63395D01*
X65935Y-63395D01*
X65897Y-63414D01*
X65878Y-63452D01*
X65878Y-63661D01*
X65516Y-63395D02*
X65516Y-63719D01*
X65535Y-63757D01*
X65554Y-63776D01*
X65592Y-63795D01*
X65650Y-63795D01*
X65688Y-63776D01*
X65516Y-63642D02*
X65554Y-63661D01*
X65630Y-63661D01*
X65669Y-63642D01*
X65688Y-63623D01*
X65707Y-63585D01*
X65707Y-63471D01*
X65688Y-63433D01*
X65669Y-63414D01*
X65630Y-63395D01*
X65554Y-63395D01*
X65516Y-63414D01*
X70288Y-64092D02*
X70154Y-64092D01*
X70097Y-64301D02*
X70288Y-64301D01*
X70288Y-63901D01*
X70097Y-63901D01*
X69964Y-64035D02*
X69869Y-64301D01*
X69773Y-64035D01*
X69449Y-64301D02*
X69449Y-64092D01*
X69469Y-64054D01*
X69507Y-64035D01*
X69583Y-64035D01*
X69621Y-64054D01*
X69449Y-64282D02*
X69488Y-64301D01*
X69583Y-64301D01*
X69621Y-64282D01*
X69640Y-64244D01*
X69640Y-64206D01*
X69621Y-64168D01*
X69583Y-64149D01*
X69488Y-64149D01*
X69449Y-64130D01*
X69202Y-64301D02*
X69240Y-64282D01*
X69259Y-64244D01*
X69259Y-63901D01*
X68611Y-64092D02*
X68554Y-64111D01*
X68535Y-64130D01*
X68516Y-64168D01*
X68516Y-64225D01*
X68535Y-64263D01*
X68554Y-64282D01*
X68592Y-64301D01*
X68745Y-64301D01*
X68745Y-63901D01*
X68611Y-63901D01*
X68573Y-63920D01*
X68554Y-63940D01*
X68535Y-63978D01*
X68535Y-64016D01*
X68554Y-64054D01*
X68573Y-64073D01*
X68611Y-64092D01*
X68745Y-64092D01*
X68288Y-64301D02*
X68326Y-64282D01*
X68345Y-64263D01*
X68364Y-64225D01*
X68364Y-64111D01*
X68345Y-64073D01*
X68326Y-64054D01*
X68288Y-64035D01*
X68230Y-64035D01*
X68192Y-64054D01*
X68173Y-64073D01*
X68154Y-64111D01*
X68154Y-64225D01*
X68173Y-64263D01*
X68192Y-64282D01*
X68230Y-64301D01*
X68288Y-64301D01*
X67811Y-64301D02*
X67811Y-64092D01*
X67830Y-64054D01*
X67869Y-64035D01*
X67945Y-64035D01*
X67983Y-64054D01*
X67811Y-64282D02*
X67850Y-64301D01*
X67945Y-64301D01*
X67983Y-64282D01*
X68002Y-64244D01*
X68002Y-64206D01*
X67983Y-64168D01*
X67945Y-64149D01*
X67850Y-64149D01*
X67811Y-64130D01*
X67621Y-64301D02*
X67621Y-64035D01*
X67621Y-64111D02*
X67602Y-64073D01*
X67583Y-64054D01*
X67545Y-64035D01*
X67507Y-64035D01*
X67202Y-64301D02*
X67202Y-63901D01*
X67202Y-64282D02*
X67240Y-64301D01*
X67316Y-64301D01*
X67354Y-64282D01*
X67373Y-64263D01*
X67392Y-64225D01*
X67392Y-64111D01*
X67373Y-64073D01*
X67354Y-64054D01*
X67316Y-64035D01*
X67240Y-64035D01*
X67202Y-64054D01*
X66745Y-64035D02*
X66650Y-64301D01*
X66554Y-64035D01*
X66192Y-64301D02*
X66421Y-64301D01*
X66307Y-64301D02*
X66307Y-63901D01*
X66345Y-63959D01*
X66383Y-63997D01*
X66421Y-64016D01*
G54D12*
X71171Y-64899D02*
X71414Y-64899D01*
X71442Y-64885D01*
X71457Y-64871D01*
X71471Y-64842D01*
X71471Y-64799D01*
X71457Y-64771D01*
X71357Y-64899D02*
X71371Y-64871D01*
X71371Y-64814D01*
X71357Y-64785D01*
X71342Y-64771D01*
X71314Y-64757D01*
X71228Y-64757D01*
X71200Y-64771D01*
X71185Y-64785D01*
X71171Y-64814D01*
X71171Y-64871D01*
X71185Y-64899D01*
X71371Y-65042D02*
X71171Y-65042D01*
X71071Y-65042D02*
X71085Y-65028D01*
X71100Y-65042D01*
X71085Y-65057D01*
X71071Y-65042D01*
X71100Y-65042D01*
X71171Y-65142D02*
X71171Y-65257D01*
X71071Y-65185D02*
X71328Y-65185D01*
X71357Y-65199D01*
X71371Y-65228D01*
X71371Y-65257D01*
X71371Y-65357D02*
X71071Y-65357D01*
X71371Y-65485D02*
X71214Y-65485D01*
X71185Y-65471D01*
X71171Y-65442D01*
X71171Y-65399D01*
X71185Y-65371D01*
X71200Y-65357D01*
X71171Y-65757D02*
X71371Y-65757D01*
X71171Y-65628D02*
X71328Y-65628D01*
X71357Y-65642D01*
X71371Y-65671D01*
X71371Y-65714D01*
X71357Y-65742D01*
X71342Y-65757D01*
X71371Y-65899D02*
X71071Y-65899D01*
X71185Y-65899D02*
X71171Y-65928D01*
X71171Y-65985D01*
X71185Y-66014D01*
X71200Y-66028D01*
X71228Y-66042D01*
X71314Y-66042D01*
X71342Y-66028D01*
X71357Y-66014D01*
X71371Y-65985D01*
X71371Y-65928D01*
X71357Y-65899D01*
X71342Y-66171D02*
X71357Y-66185D01*
X71371Y-66171D01*
X71357Y-66157D01*
X71342Y-66171D01*
X71371Y-66171D01*
X71357Y-66442D02*
X71371Y-66414D01*
X71371Y-66357D01*
X71357Y-66328D01*
X71342Y-66314D01*
X71314Y-66299D01*
X71228Y-66299D01*
X71200Y-66314D01*
X71185Y-66328D01*
X71171Y-66357D01*
X71171Y-66414D01*
X71185Y-66442D01*
X71371Y-66614D02*
X71357Y-66585D01*
X71342Y-66571D01*
X71314Y-66557D01*
X71228Y-66557D01*
X71200Y-66571D01*
X71185Y-66585D01*
X71171Y-66614D01*
X71171Y-66657D01*
X71185Y-66685D01*
X71200Y-66699D01*
X71228Y-66714D01*
X71314Y-66714D01*
X71342Y-66699D01*
X71357Y-66685D01*
X71371Y-66657D01*
X71371Y-66614D01*
X71371Y-66842D02*
X71171Y-66842D01*
X71200Y-66842D02*
X71185Y-66857D01*
X71171Y-66885D01*
X71171Y-66928D01*
X71185Y-66957D01*
X71214Y-66971D01*
X71371Y-66971D01*
X71214Y-66971D02*
X71185Y-66985D01*
X71171Y-67014D01*
X71171Y-67057D01*
X71185Y-67085D01*
X71214Y-67099D01*
X71371Y-67099D01*
X71057Y-67457D02*
X71442Y-67199D01*
X71171Y-67557D02*
X71471Y-67557D01*
X71185Y-67557D02*
X71171Y-67585D01*
X71171Y-67642D01*
X71185Y-67671D01*
X71200Y-67685D01*
X71228Y-67700D01*
X71314Y-67700D01*
X71342Y-67685D01*
X71357Y-67671D01*
X71371Y-67642D01*
X71371Y-67585D01*
X71357Y-67557D01*
X71357Y-67942D02*
X71371Y-67914D01*
X71371Y-67857D01*
X71357Y-67828D01*
X71328Y-67814D01*
X71214Y-67814D01*
X71185Y-67828D01*
X71171Y-67857D01*
X71171Y-67914D01*
X71185Y-67942D01*
X71214Y-67957D01*
X71242Y-67957D01*
X71271Y-67814D01*
X71171Y-68085D02*
X71471Y-68085D01*
X71185Y-68085D02*
X71171Y-68114D01*
X71171Y-68171D01*
X71185Y-68200D01*
X71200Y-68214D01*
X71228Y-68228D01*
X71314Y-68228D01*
X71342Y-68214D01*
X71357Y-68200D01*
X71371Y-68171D01*
X71371Y-68114D01*
X71357Y-68085D01*
X71371Y-68485D02*
X71214Y-68485D01*
X71185Y-68471D01*
X71171Y-68442D01*
X71171Y-68385D01*
X71185Y-68357D01*
X71357Y-68485D02*
X71371Y-68457D01*
X71371Y-68385D01*
X71357Y-68357D01*
X71328Y-68342D01*
X71300Y-68342D01*
X71271Y-68357D01*
X71257Y-68385D01*
X71257Y-68457D01*
X71242Y-68485D01*
X71357Y-68614D02*
X71371Y-68642D01*
X71371Y-68700D01*
X71357Y-68728D01*
X71328Y-68742D01*
X71314Y-68742D01*
X71285Y-68728D01*
X71271Y-68700D01*
X71271Y-68657D01*
X71257Y-68628D01*
X71228Y-68614D01*
X71214Y-68614D01*
X71185Y-68628D01*
X71171Y-68657D01*
X71171Y-68700D01*
X71185Y-68728D01*
X71371Y-68914D02*
X71357Y-68885D01*
X71328Y-68871D01*
X71071Y-68871D01*
X71371Y-69157D02*
X71214Y-69157D01*
X71185Y-69142D01*
X71171Y-69114D01*
X71171Y-69057D01*
X71185Y-69028D01*
X71357Y-69157D02*
X71371Y-69128D01*
X71371Y-69057D01*
X71357Y-69028D01*
X71328Y-69014D01*
X71300Y-69014D01*
X71271Y-69028D01*
X71257Y-69057D01*
X71257Y-69128D01*
X71242Y-69157D01*
X71371Y-69300D02*
X71071Y-69300D01*
X71185Y-69300D02*
X71171Y-69328D01*
X71171Y-69385D01*
X71185Y-69414D01*
X71200Y-69428D01*
X71228Y-69442D01*
X71314Y-69442D01*
X71342Y-69428D01*
X71357Y-69414D01*
X71371Y-69385D01*
X71371Y-69328D01*
X71357Y-69300D01*
X71357Y-69557D02*
X71371Y-69585D01*
X71371Y-69642D01*
X71357Y-69671D01*
X71328Y-69685D01*
X71314Y-69685D01*
X71285Y-69671D01*
X71271Y-69642D01*
X71271Y-69600D01*
X71257Y-69571D01*
X71228Y-69557D01*
X71214Y-69557D01*
X71185Y-69571D01*
X71171Y-69600D01*
X71171Y-69642D01*
X71185Y-69671D01*
X71057Y-70028D02*
X71442Y-69771D01*
X71371Y-70128D02*
X71071Y-70128D01*
X71285Y-70228D01*
X71071Y-70328D01*
X71371Y-70328D01*
X71342Y-70642D02*
X71357Y-70628D01*
X71371Y-70585D01*
X71371Y-70557D01*
X71357Y-70514D01*
X71328Y-70485D01*
X71300Y-70471D01*
X71242Y-70457D01*
X71200Y-70457D01*
X71142Y-70471D01*
X71114Y-70485D01*
X71085Y-70514D01*
X71071Y-70557D01*
X71071Y-70585D01*
X71085Y-70628D01*
X71100Y-70642D01*
X71071Y-70742D02*
X71071Y-70928D01*
X71185Y-70828D01*
X71185Y-70871D01*
X71200Y-70900D01*
X71214Y-70914D01*
X71242Y-70928D01*
X71314Y-70928D01*
X71342Y-70914D01*
X71357Y-70900D01*
X71371Y-70871D01*
X71371Y-70785D01*
X71357Y-70757D01*
X71342Y-70742D01*
X71171Y-71185D02*
X71371Y-71185D01*
X71057Y-71114D02*
X71271Y-71042D01*
X71271Y-71228D01*
X71071Y-71400D02*
X71071Y-71428D01*
X71085Y-71457D01*
X71100Y-71471D01*
X71128Y-71485D01*
X71185Y-71500D01*
X71257Y-71500D01*
X71314Y-71485D01*
X71342Y-71471D01*
X71357Y-71457D01*
X71371Y-71428D01*
X71371Y-71400D01*
X71357Y-71371D01*
X71342Y-71357D01*
X71314Y-71342D01*
X71257Y-71328D01*
X71185Y-71328D01*
X71128Y-71342D01*
X71100Y-71357D01*
X71085Y-71371D01*
X71071Y-71400D01*
X71071Y-71757D02*
X71071Y-71700D01*
X71085Y-71671D01*
X71100Y-71657D01*
X71142Y-71628D01*
X71200Y-71614D01*
X71314Y-71614D01*
X71342Y-71628D01*
X71357Y-71642D01*
X71371Y-71671D01*
X71371Y-71728D01*
X71357Y-71757D01*
X71342Y-71771D01*
X71314Y-71785D01*
X71242Y-71785D01*
X71214Y-71771D01*
X71200Y-71757D01*
X71185Y-71728D01*
X71185Y-71671D01*
X71200Y-71642D01*
X71214Y-71628D01*
X71242Y-71614D01*
X71071Y-71885D02*
X71071Y-72071D01*
X71185Y-71971D01*
X71185Y-72014D01*
X71200Y-72042D01*
X71214Y-72057D01*
X71242Y-72071D01*
X71314Y-72071D01*
X71342Y-72057D01*
X71357Y-72042D01*
X71371Y-72014D01*
X71371Y-71928D01*
X71357Y-71900D01*
X71342Y-71885D01*
X71371Y-72200D02*
X71071Y-72200D01*
X71171Y-72342D02*
X71371Y-72342D01*
X71200Y-72342D02*
X71185Y-72357D01*
X71171Y-72385D01*
X71171Y-72428D01*
X71185Y-72457D01*
X71214Y-72471D01*
X71371Y-72471D01*
X71171Y-72585D02*
X71371Y-72657D01*
X71171Y-72728D01*
X71357Y-72957D02*
X71371Y-72928D01*
X71371Y-72871D01*
X71357Y-72842D01*
X71328Y-72828D01*
X71214Y-72828D01*
X71185Y-72842D01*
X71171Y-72871D01*
X71171Y-72928D01*
X71185Y-72957D01*
X71214Y-72971D01*
X71242Y-72971D01*
X71271Y-72828D01*
X71371Y-73100D02*
X71171Y-73100D01*
X71228Y-73100D02*
X71200Y-73114D01*
X71185Y-73128D01*
X71171Y-73157D01*
X71171Y-73185D01*
X71171Y-73242D02*
X71171Y-73357D01*
X71071Y-73285D02*
X71328Y-73285D01*
X71357Y-73300D01*
X71371Y-73328D01*
X71371Y-73357D01*
X71371Y-73457D02*
X71171Y-73457D01*
X71071Y-73457D02*
X71085Y-73442D01*
X71100Y-73457D01*
X71085Y-73471D01*
X71071Y-73457D01*
X71100Y-73457D01*
X71171Y-73600D02*
X71371Y-73600D01*
X71200Y-73600D02*
X71185Y-73614D01*
X71171Y-73642D01*
X71171Y-73685D01*
X71185Y-73714D01*
X71214Y-73728D01*
X71371Y-73728D01*
X71171Y-74000D02*
X71414Y-74000D01*
X71442Y-73985D01*
X71457Y-73971D01*
X71471Y-73942D01*
X71471Y-73900D01*
X71457Y-73871D01*
X71357Y-74000D02*
X71371Y-73971D01*
X71371Y-73914D01*
X71357Y-73885D01*
X71342Y-73871D01*
X71314Y-73857D01*
X71228Y-73857D01*
X71200Y-73871D01*
X71185Y-73885D01*
X71171Y-73914D01*
X71171Y-73971D01*
X71185Y-74000D01*
X71214Y-74142D02*
X71214Y-74242D01*
X71371Y-74285D02*
X71371Y-74142D01*
X71071Y-74142D01*
X71071Y-74285D01*
X71171Y-74385D02*
X71371Y-74457D01*
X71171Y-74528D01*
X71371Y-74771D02*
X71214Y-74771D01*
X71185Y-74757D01*
X71171Y-74728D01*
X71171Y-74671D01*
X71185Y-74642D01*
X71357Y-74771D02*
X71371Y-74742D01*
X71371Y-74671D01*
X71357Y-74642D01*
X71328Y-74628D01*
X71300Y-74628D01*
X71271Y-74642D01*
X71257Y-74671D01*
X71257Y-74742D01*
X71242Y-74771D01*
X71371Y-74957D02*
X71357Y-74928D01*
X71328Y-74914D01*
X71071Y-74914D01*
X71214Y-75171D02*
X71228Y-75214D01*
X71242Y-75228D01*
X71271Y-75242D01*
X71314Y-75242D01*
X71342Y-75228D01*
X71357Y-75214D01*
X71371Y-75185D01*
X71371Y-75071D01*
X71071Y-75071D01*
X71071Y-75171D01*
X71085Y-75200D01*
X71100Y-75214D01*
X71128Y-75228D01*
X71157Y-75228D01*
X71185Y-75214D01*
X71200Y-75200D01*
X71214Y-75171D01*
X71214Y-75071D01*
X71371Y-75414D02*
X71357Y-75385D01*
X71342Y-75371D01*
X71314Y-75357D01*
X71228Y-75357D01*
X71200Y-75371D01*
X71185Y-75385D01*
X71171Y-75414D01*
X71171Y-75457D01*
X71185Y-75485D01*
X71200Y-75500D01*
X71228Y-75514D01*
X71314Y-75514D01*
X71342Y-75500D01*
X71357Y-75485D01*
X71371Y-75457D01*
X71371Y-75414D01*
X71371Y-75771D02*
X71214Y-75771D01*
X71185Y-75757D01*
X71171Y-75728D01*
X71171Y-75671D01*
X71185Y-75642D01*
X71357Y-75771D02*
X71371Y-75742D01*
X71371Y-75671D01*
X71357Y-75642D01*
X71328Y-75628D01*
X71300Y-75628D01*
X71271Y-75642D01*
X71257Y-75671D01*
X71257Y-75742D01*
X71242Y-75771D01*
X71371Y-75914D02*
X71171Y-75914D01*
X71228Y-75914D02*
X71200Y-75928D01*
X71185Y-75942D01*
X71171Y-75971D01*
X71171Y-76000D01*
X71371Y-76228D02*
X71071Y-76228D01*
X71357Y-76228D02*
X71371Y-76200D01*
X71371Y-76142D01*
X71357Y-76114D01*
X71342Y-76100D01*
X71314Y-76085D01*
X71228Y-76085D01*
X71200Y-76100D01*
X71185Y-76114D01*
X71171Y-76142D01*
X71171Y-76200D01*
X71185Y-76228D01*
G54D13*
G36*
X72457Y-77523D02*
X72453Y-77531D01*
X72441Y-77550D01*
X72424Y-77576D01*
X72403Y-77607D01*
X72382Y-77638D01*
X72365Y-77664D01*
X72353Y-77682D01*
X72349Y-77689D01*
X72350Y-77693D01*
X72358Y-77708D01*
X72369Y-77730D01*
X72375Y-77742D01*
X72384Y-77762D01*
X72386Y-77772D01*
X72383Y-77773D01*
X72368Y-77781D01*
X72342Y-77792D01*
X72308Y-77807D01*
X72268Y-77824D01*
X72225Y-77842D01*
X72181Y-77860D01*
X72139Y-77878D01*
X72101Y-77893D01*
X72071Y-77906D01*
X72049Y-77914D01*
X72040Y-77917D01*
X72038Y-77916D01*
X72029Y-77906D01*
X72016Y-77889D01*
X71985Y-77851D01*
X71939Y-77815D01*
X71887Y-77792D01*
X71829Y-77785D01*
X71776Y-77791D01*
X71725Y-77812D01*
X71678Y-77848D01*
X71644Y-77892D01*
X71622Y-77943D01*
X71615Y-78000D01*
X71621Y-78055D01*
X71642Y-78107D01*
X71677Y-78154D01*
X71700Y-78173D01*
X71747Y-78200D01*
X71797Y-78216D01*
X71809Y-78217D01*
X71865Y-78215D01*
X71918Y-78199D01*
X71965Y-78170D01*
X72004Y-78129D01*
X72008Y-78124D01*
X72022Y-78105D01*
X72031Y-78093D01*
X72039Y-78083D01*
X72209Y-78153D01*
X72236Y-78164D01*
X72282Y-78184D01*
X72322Y-78201D01*
X72354Y-78214D01*
X72375Y-78224D01*
X72384Y-78228D01*
X72384Y-78228D01*
X72385Y-78234D01*
X72380Y-78247D01*
X72369Y-78271D01*
X72361Y-78287D01*
X72352Y-78305D01*
X72349Y-78313D01*
X72353Y-78320D01*
X72364Y-78337D01*
X72381Y-78362D01*
X72401Y-78392D01*
X72421Y-78421D01*
X72439Y-78448D01*
X72451Y-78467D01*
X72456Y-78477D01*
X72456Y-78478D01*
X72451Y-78486D01*
X72439Y-78502D01*
X72417Y-78525D01*
X72385Y-78557D01*
X72380Y-78562D01*
X72352Y-78589D01*
X72329Y-78611D01*
X72313Y-78626D01*
X72306Y-78631D01*
X72306Y-78631D01*
X72296Y-78626D01*
X72277Y-78614D01*
X72250Y-78596D01*
X72219Y-78575D01*
X72137Y-78519D01*
X72060Y-78550D01*
X72037Y-78559D01*
X72008Y-78571D01*
X71988Y-78580D01*
X71979Y-78585D01*
X71976Y-78593D01*
X71971Y-78614D01*
X71964Y-78645D01*
X71958Y-78681D01*
X71951Y-78716D01*
X71945Y-78747D01*
X71941Y-78770D01*
X71939Y-78780D01*
X71937Y-78782D01*
X71932Y-78784D01*
X71922Y-78786D01*
X71903Y-78786D01*
X71873Y-78787D01*
X71829Y-78787D01*
X71825Y-78787D01*
X71783Y-78786D01*
X71750Y-78786D01*
X71729Y-78785D01*
X71721Y-78783D01*
X71721Y-78783D01*
X71718Y-78773D01*
X71714Y-78751D01*
X71707Y-78720D01*
X71700Y-78682D01*
X71700Y-78680D01*
X71693Y-78643D01*
X71686Y-78612D01*
X71681Y-78590D01*
X71678Y-78581D01*
X71676Y-78579D01*
X71661Y-78571D01*
X71638Y-78560D01*
X71610Y-78548D01*
X71581Y-78536D01*
X71554Y-78525D01*
X71535Y-78518D01*
X71526Y-78516D01*
X71526Y-78516D01*
X71517Y-78522D01*
X71497Y-78535D01*
X71471Y-78553D01*
X71439Y-78575D01*
X71436Y-78576D01*
X71405Y-78598D01*
X71378Y-78615D01*
X71359Y-78627D01*
X71351Y-78631D01*
X71350Y-78631D01*
X71341Y-78624D01*
X71323Y-78608D01*
X71299Y-78585D01*
X71271Y-78557D01*
X71263Y-78548D01*
X71233Y-78518D01*
X71213Y-78497D01*
X71203Y-78483D01*
X71200Y-78477D01*
X71201Y-78477D01*
X71206Y-78467D01*
X71219Y-78447D01*
X71238Y-78420D01*
X71259Y-78388D01*
X71261Y-78386D01*
X71282Y-78355D01*
X71300Y-78329D01*
X71312Y-78310D01*
X71317Y-78302D01*
X71317Y-78300D01*
X71313Y-78288D01*
X71306Y-78265D01*
X71295Y-78238D01*
X71283Y-78209D01*
X71272Y-78182D01*
X71263Y-78162D01*
X71258Y-78153D01*
X71257Y-78153D01*
X71246Y-78149D01*
X71222Y-78144D01*
X71190Y-78137D01*
X71151Y-78130D01*
X71145Y-78129D01*
X71108Y-78122D01*
X71077Y-78116D01*
X71055Y-78111D01*
X71046Y-78109D01*
X71045Y-78104D01*
X71044Y-78085D01*
X71043Y-78057D01*
X71043Y-78023D01*
X71043Y-77988D01*
X71044Y-77954D01*
X71045Y-77924D01*
X71046Y-77903D01*
X71048Y-77894D01*
X71049Y-77893D01*
X71060Y-77890D01*
X71084Y-77885D01*
X71116Y-77878D01*
X71155Y-77871D01*
X71162Y-77870D01*
X71199Y-77863D01*
X71230Y-77856D01*
X71251Y-77852D01*
X71259Y-77849D01*
X71261Y-77846D01*
X71268Y-77831D01*
X71278Y-77806D01*
X71291Y-77774D01*
X71320Y-77702D01*
X71259Y-77614D01*
X71254Y-77606D01*
X71232Y-77574D01*
X71215Y-77548D01*
X71203Y-77530D01*
X71199Y-77522D01*
X71199Y-77522D01*
X71207Y-77513D01*
X71223Y-77495D01*
X71247Y-77471D01*
X71274Y-77444D01*
X71295Y-77423D01*
X71320Y-77399D01*
X71336Y-77383D01*
X71347Y-77375D01*
X71354Y-77372D01*
X71358Y-77373D01*
X71367Y-77378D01*
X71386Y-77391D01*
X71413Y-77409D01*
X71444Y-77431D01*
X71471Y-77449D01*
X71500Y-77468D01*
X71521Y-77480D01*
X71532Y-77485D01*
X71536Y-77484D01*
X71553Y-77477D01*
X71580Y-77467D01*
X71611Y-77454D01*
X71681Y-77423D01*
X71689Y-77377D01*
X71695Y-77349D01*
X71702Y-77310D01*
X71709Y-77273D01*
X71721Y-77215D01*
X71933Y-77213D01*
X71937Y-77222D01*
X71940Y-77231D01*
X71944Y-77252D01*
X71950Y-77283D01*
X71957Y-77319D01*
X71963Y-77350D01*
X71969Y-77381D01*
X71973Y-77403D01*
X71975Y-77413D01*
X71979Y-77416D01*
X71994Y-77424D01*
X72018Y-77435D01*
X72047Y-77447D01*
X72076Y-77459D01*
X72104Y-77470D01*
X72125Y-77478D01*
X72136Y-77481D01*
X72144Y-77477D01*
X72162Y-77465D01*
X72188Y-77448D01*
X72219Y-77427D01*
X72250Y-77405D01*
X72277Y-77388D01*
X72296Y-77375D01*
X72304Y-77370D01*
X72310Y-77373D01*
X72325Y-77385D01*
X72349Y-77408D01*
X72384Y-77443D01*
X72389Y-77449D01*
X72416Y-77476D01*
X72437Y-77500D01*
X72452Y-77516D01*
X72457Y-77523D01*
X72457Y-77523D01*
G37*
M02*
